<svg xmlns="http://www.w3.org/2000/svg" width="4000" height="896" viewBox="0 0 4000 896" version="1.1"><path d="M 410.687 0.646 C 409.588 1.745, 400.061 3.096, 387 4.004 C 364.185 5.591, 358.803 6.530, 353.927 9.777 C 350.036 12.368, 348.290 12.806, 339.507 13.400 C 331 13.974, 328.433 14.588, 322.242 17.526 C 318.242 19.425, 311.039 21.750, 306.235 22.693 C 300.289 23.861, 296.118 25.341, 293.171 27.328 C 290.790 28.934, 286.965 30.649, 284.671 31.138 C 278.558 32.444, 265.032 38.038, 262 40.515 C 261.175 41.189, 257.575 43.015, 254 44.572 C 250.425 46.129, 246.132 48.419, 244.461 49.659 C 242.790 50.900, 238.878 52.578, 235.769 53.388 C 230.693 54.710, 224.386 58.329, 212.558 66.708 C 210.390 68.244, 206.340 70.789, 203.558 72.364 C 200.776 73.939, 196.598 76.976, 194.272 79.114 C 191.947 81.251, 189.600 83, 189.057 83 C 188.514 83, 186.484 84.392, 184.547 86.093 C 182.610 87.794, 179.260 90.381, 177.103 91.843 C 174.946 93.304, 171.228 96.189, 168.841 98.252 C 161.524 104.578, 154.392 110.357, 150.096 113.442 C 147.843 115.060, 145.999 116.635, 145.999 116.942 C 145.998 117.249, 144.761 118.682, 143.249 120.128 C 119.498 142.832, 96.219 168.460, 94.582 173.706 C 94.203 174.919, 92.578 177.019, 90.971 178.371 C 89.363 179.724, 86.765 183.006, 85.197 185.665 C 83.629 188.324, 80.886 192.075, 79.102 194 C 77.318 195.925, 74.680 199.525, 73.241 202 C 71.801 204.475, 69.594 207.758, 68.338 209.295 C 67.081 210.833, 65.588 213.816, 65.021 215.924 C 64.453 218.031, 61.741 222.839, 58.994 226.607 C 56.247 230.374, 54 234.066, 54 234.810 C 54 235.555, 52.425 238.085, 50.500 240.435 C 48.575 242.784, 46.993 245.785, 46.985 247.103 C 46.977 248.421, 46.316 250.625, 45.516 252 C 44.716 253.375, 43.567 255.701, 42.961 257.170 C 42.356 258.638, 41.259 260.070, 40.524 260.352 C 39.790 260.634, 38.892 262.214, 38.530 263.863 C 38.168 265.512, 37.225 267.398, 36.436 268.053 C 35.629 268.723, 35 270.985, 35 273.215 C 35 275.670, 34.237 278.154, 33 279.727 C 31.900 281.126, 31 282.823, 31 283.500 C 31 284.177, 30.137 285.827, 29.082 287.168 C 28.027 288.509, 26.861 291.382, 26.489 293.553 C 25.483 299.430, 22.109 308.228, 19.990 310.500 C 17.935 312.703, 16.688 317.414, 14.961 329.500 C 14.185 334.933, 13.175 338.195, 11.813 339.667 C 10.285 341.318, 9.738 343.488, 9.519 348.767 C 9.361 352.580, 8.791 356.555, 8.252 357.600 C 7.714 358.645, 6.981 364.176, 6.623 369.892 C 6.031 379.329, 3.341 391.802, 0.940 396.236 C -0.338 398.597, -0.311 501.469, 0.968 503.764 C 2.051 505.708, 4.813 516.137, 6.062 523 C 6.512 525.475, 6.908 531.227, 6.940 535.782 C 6.976 540.751, 7.600 545.501, 8.500 547.654 C 9.325 549.629, 10 552.245, 10 553.467 C 10 554.690, 10.839 556.449, 11.864 557.377 C 13.848 559.172, 16.782 572.926, 15.592 574.852 C 14.745 576.222, 17.212 582.101, 20.376 586.250 C 23.173 589.917, 25.543 596.494, 26.282 602.640 C 26.563 604.974, 28.573 609.799, 30.890 613.698 C 33.465 618.032, 35 621.843, 35 623.900 C 35 625.707, 35.900 628.329, 37 629.727 C 38.100 631.126, 39 632.829, 39 633.512 C 39 634.196, 39.722 635.354, 40.604 636.086 C 41.486 636.819, 42.631 638.336, 43.147 639.459 C 43.663 640.582, 44.735 642.625, 45.528 644 C 46.321 645.375, 46.977 647.571, 46.985 648.881 C 46.993 650.190, 48.521 653.379, 50.381 655.967 C 52.240 658.555, 54.085 661.692, 54.481 662.939 C 55.217 665.260, 57.477 668.823, 62.134 675.004 C 63.583 676.927, 65.105 679.625, 65.517 681 C 65.930 682.375, 67.505 685.075, 69.017 687 C 70.530 688.925, 72.461 692.160, 73.308 694.190 C 74.154 696.219, 76.589 699.819, 78.717 702.190 C 80.845 704.560, 83.069 707.625, 83.660 709 C 84.250 710.375, 86.765 713.750, 89.249 716.500 C 99.682 728.050, 103 732.144, 103 733.468 C 103 734.700, 108.792 740.986, 132.500 765.485 C 143.499 776.851, 172.251 801.751, 178.127 805 C 179.619 805.825, 181.820 807.752, 183.018 809.283 C 184.217 810.814, 187.290 813.170, 189.849 814.518 C 192.407 815.867, 196.525 818.429, 199 820.211 C 213.097 830.366, 217.117 832.983, 223 835.841 C 230.820 839.640, 239.758 845.129, 242.500 847.817 C 245.458 850.717, 250.492 853, 253.928 853 C 255.593 853, 259.420 854.334, 262.433 855.964 C 270.151 860.139, 271.068 860.578, 275 861.978 C 287.263 866.342, 297.781 870.465, 299.500 871.582 C 300.600 872.296, 303.975 873.168, 307 873.520 C 312.969 874.214, 320.865 877.109, 324.937 880.097 C 327.890 882.263, 334.626 883.699, 347.746 884.960 C 354.641 885.622, 357.663 886.376, 359.631 887.924 C 361.082 889.066, 363.305 890, 364.570 890 C 365.835 890, 367.920 890.399, 369.203 890.887 C 370.487 891.375, 382.103 892.317, 395.018 892.980 C 407.933 893.643, 418.928 894.593, 419.450 895.092 C 420.878 896.457, 479.743 896.271, 480.200 894.901 C 480.436 894.193, 486.076 893.632, 496.033 893.327 C 517.718 892.662, 533.778 890.416, 536.874 887.614 C 538.196 886.417, 541.613 885.579, 547.655 884.968 C 558.755 883.846, 568.751 881.474, 572 879.190 C 576.331 876.146, 582.281 874.167, 588.879 873.576 C 592.635 873.239, 596.590 872.181, 598.497 871.002 C 600.278 869.901, 602.583 869, 603.618 868.999 C 606.386 868.999, 615.955 865.180, 618.803 862.940 C 620.160 861.873, 621.883 861, 622.633 861 C 623.382 861, 626.134 859.467, 628.748 857.592 C 631.741 855.446, 635.535 853.809, 639 853.168 C 642.025 852.609, 645.850 851.445, 647.500 850.582 C 649.150 849.719, 650.874 849.010, 651.332 849.006 C 651.789 849.003, 654.085 847.425, 656.435 845.500 C 658.784 843.575, 661.140 842, 661.671 842 C 662.202 842, 664.406 840.425, 666.568 838.501 C 668.731 836.576, 671.483 835.001, 672.685 835.001 C 676.381 834.999, 679.840 833.220, 686.284 828.006 C 689.687 825.253, 693.008 823, 693.664 823 C 694.321 823, 696.577 821.364, 698.679 819.364 C 700.780 817.365, 704.009 815.089, 705.853 814.308 C 707.698 813.526, 711.298 810.985, 713.853 808.661 C 719.942 803.124, 726.934 797.611, 729.770 796.109 C 739.557 790.930, 797 732.947, 797 728.247 C 797 727.732, 797.951 726.453, 799.113 725.405 C 803.154 721.762, 815.630 704.589, 817.751 699.750 C 818.415 698.237, 819.380 697, 819.897 697 C 820.414 697, 821.849 695.313, 823.086 693.250 C 824.323 691.188, 827.462 686.575, 830.061 683 C 832.661 679.425, 835.532 674.706, 836.442 672.514 C 837.351 670.321, 838.925 667.621, 839.939 666.514 C 842.280 663.958, 846 655.733, 846 653.114 C 846 652.016, 846.414 650.862, 846.920 650.550 C 848.038 649.858, 853 641.113, 853 639.832 C 853 638.683, 858.190 628.116, 862.003 621.500 C 863.588 618.750, 864.911 615.464, 864.943 614.198 C 864.974 612.932, 865.863 610.232, 866.917 608.198 C 867.972 606.164, 869.318 603.375, 869.910 602 C 870.501 600.625, 871.393 598.825, 871.891 598 C 874.512 593.657, 876.194 587.907, 875.569 585.421 C 875.052 583.358, 875.905 580.690, 879.169 574.162 C 882.030 568.440, 883.518 564.097, 883.660 561.053 C 884.139 550.822, 886.733 537.574, 889.174 532.891 C 890.587 530.180, 891.461 525.798, 892.045 518.494 C 892.508 512.719, 893.125 507.607, 893.416 507.136 C 893.708 506.664, 894.031 497.878, 894.133 487.611 C 894.269 474.023, 894.676 468.476, 895.628 467.222 C 897.553 464.689, 897.448 438.408, 895.500 435 C 894.369 433.022, 894.063 427.305, 894.035 407.624 C 894.004 385.872, 893.733 381.602, 891.875 373.624 C 890.707 368.606, 889.204 363.375, 888.536 362 C 887.868 360.625, 886.780 356.125, 886.117 352 C 885.455 347.875, 884.445 342.380, 883.874 339.788 C 883.302 337.197, 883.094 334.657, 883.411 334.145 C 884.237 332.808, 881.371 325.180, 878.288 320.509 C 876.449 317.724, 875.594 315.005, 875.457 311.509 C 875.269 306.722, 872.879 298.764, 870.919 296.403 C 868.746 293.784, 865.258 286.188, 864.587 282.613 C 863.711 277.943, 859.657 268.524, 858.112 267.569 C 857.500 267.191, 857 266.064, 857 265.063 C 857 264.063, 856.354 262.709, 855.564 262.053 C 854.775 261.398, 853.821 259.462, 853.445 257.752 C 853.070 256.041, 851.241 252.477, 849.381 249.831 C 847.522 247.185, 846 244.538, 846 243.948 C 846 241.918, 840.999 232.309, 839.001 230.501 C 837.901 229.505, 837 228.062, 837 227.295 C 837 225.210, 834.381 220.540, 829.939 214.707 C 827.759 211.843, 825.541 207.925, 825.011 206 C 824.481 204.075, 822.349 200.362, 820.273 197.750 C 810.739 185.748, 808.366 182.652, 806.500 179.781 C 805.400 178.088, 802.587 174.762, 800.250 172.389 C 797.913 170.016, 796 167.693, 796 167.227 C 796 166.761, 794.729 165.057, 793.176 163.440 C 791.623 161.823, 788.401 157.800, 786.015 154.500 C 783.630 151.200, 773.064 139.878, 762.535 129.341 C 744.302 111.093, 743.167 110.148, 738.695 109.477 C 730.189 108.201, 725.691 109.561, 717.736 115.813 C 713.756 118.941, 708.587 122.799, 706.250 124.386 C 703.913 125.973, 702 127.618, 702 128.041 C 702 128.464, 699.862 130.041, 697.250 131.545 C 694.638 133.049, 691.600 135.269, 690.500 136.477 C 689.400 137.686, 686.475 139.504, 684 140.517 C 681.525 141.530, 677.025 144.187, 674 146.422 C 670.975 148.657, 666.925 151.322, 665 152.345 C 663.075 153.368, 660.375 155.248, 659 156.522 C 657.625 157.797, 654.025 159.688, 651 160.726 C 647.975 161.764, 643.925 163.604, 642 164.816 C 635.394 168.975, 614.071 179, 611.786 179.022 C 610.529 179.034, 607.538 179.934, 605.141 181.022 C 602.743 182.110, 599.466 183, 597.858 183 C 594.616 183, 586.106 186.963, 584.065 189.422 C 583.278 190.369, 581.185 191, 578.826 191 C 576.664 191, 573.232 191.878, 571.198 192.950 C 569.164 194.023, 566.825 195.166, 566 195.490 C 565.175 195.813, 563.375 196.729, 562 197.524 C 560.436 198.429, 556.693 198.977, 552 198.988 C 541.894 199.013, 527.716 201.603, 521.442 204.571 C 516.844 206.746, 514.979 207, 503.604 207 C 494.008 207, 490.157 207.385, 487.860 208.572 C 486.188 209.437, 484.248 209.925, 483.550 209.658 C 482.852 209.390, 477.155 209.522, 470.890 209.951 C 463.678 210.446, 459.042 210.369, 458.250 209.744 C 457.265 208.965, 457 187.917, 457 110.533 C 457 12.311, 457 12.311, 452.114 7.513 C 445.024 0.551, 443.112 0, 426.052 0 C 417.957 0, 411.043 0.291, 410.687 0.646 M 1013 31.961 C 998.897 32.569, 997.262 33.215, 993.458 39.678 C 991 43.856, 991 43.856, 991.058 462.178 C 991.116 880.500, 991.116 880.500, 993.808 885.935 C 995.289 888.924, 997.175 891.708, 998 892.122 C 1006.091 896.175, 1000.979 896, 1110.966 896 C 1215.626 896, 1215.626 896, 1220.667 893.568 C 1226.025 890.983, 1230.706 886.255, 1231.454 882.673 C 1233.578 872.497, 1233.804 870.076, 1232.967 866.465 C 1231.842 861.612, 1231.789 685.507, 1232.911 678.684 C 1234.270 670.420, 1233.801 670.557, 1259.713 670.878 C 1272.219 671.033, 1282.820 671.388, 1283.271 671.667 C 1284.075 672.164, 1333.879 672.013, 1359.500 671.436 C 1366.650 671.275, 1376.100 670.695, 1380.500 670.146 C 1384.900 669.597, 1395.202 668.849, 1403.393 668.483 C 1411.584 668.118, 1420.359 667.189, 1422.893 666.420 C 1425.427 665.651, 1429.774 665.017, 1432.553 665.011 C 1436.388 665.003, 1439.599 664.036, 1445.877 661 C 1451.054 658.497, 1455.564 657, 1457.931 657 C 1460.756 657, 1462.945 656.059, 1466.588 653.277 C 1470.058 650.628, 1472.911 649.357, 1476.482 648.869 C 1482.811 648.004, 1490.894 645.217, 1493.500 643.002 C 1495.583 641.231, 1504.016 637, 1505.463 637 C 1505.920 637, 1508.216 635.425, 1510.565 633.500 C 1512.915 631.575, 1515.666 630, 1516.680 630 C 1517.693 630, 1520.768 628.436, 1523.511 626.525 C 1526.255 624.614, 1530.484 621.802, 1532.909 620.275 C 1535.334 618.749, 1539.511 615.587, 1542.192 613.250 C 1544.873 610.913, 1547.614 608.992, 1548.283 608.983 C 1549.579 608.964, 1560.855 599.565, 1567.500 592.963 C 1569.700 590.778, 1572.040 588.992, 1572.701 588.995 C 1574.079 589.001, 1596 567.297, 1596 565.926 C 1596 565.050, 1600.909 559.151, 1610.744 548.209 C 1613.360 545.299, 1616.175 541.863, 1617 540.572 C 1617.825 539.281, 1620.612 535.542, 1623.193 532.262 C 1625.775 528.982, 1628.178 525.140, 1628.533 523.723 C 1628.889 522.306, 1630.092 520.327, 1631.207 519.324 C 1632.322 518.321, 1634.324 515.040, 1635.657 512.034 C 1636.990 509.028, 1638.671 505.878, 1639.392 505.034 C 1641.994 501.989, 1649 487.249, 1649 484.819 C 1649 483.967, 1649.838 482.197, 1650.863 480.885 C 1653.636 477.333, 1657 470.348, 1657 468.139 C 1657 467.072, 1658.800 462.679, 1661 458.377 C 1663.839 452.825, 1665 449.304, 1665 446.242 C 1665 443.870, 1665.702 440.859, 1666.559 439.550 C 1667.417 438.241, 1668.296 434.418, 1668.513 431.054 C 1668.729 427.691, 1669.773 423.265, 1670.833 421.219 C 1673.403 416.258, 1675.240 407.372, 1676.563 393.500 C 1676.721 391.850, 1677.400 388.025, 1678.073 385 C 1678.785 381.799, 1679.463 368.886, 1679.697 354.104 C 1680.056 331.378, 1679.888 327.803, 1678.103 320.104 C 1677.006 315.372, 1675.841 308.575, 1675.515 305 C 1674.548 294.393, 1672.972 286.778, 1670.776 282.101 C 1669.640 279.682, 1668.394 274.957, 1668.007 271.601 C 1667.620 268.245, 1666.785 264.233, 1666.152 262.685 C 1665.518 261.137, 1665 258.322, 1665 256.431 C 1665 254.540, 1664.100 251.314, 1663 249.261 C 1661.900 247.209, 1661 244.919, 1661 244.173 C 1661 243.426, 1660.100 241.671, 1659 240.273 C 1657.900 238.874, 1656.974 236.553, 1656.943 235.115 C 1656.911 233.677, 1655.579 230.250, 1653.983 227.500 C 1652.387 224.750, 1650.562 221.375, 1649.928 220 C 1649.293 218.625, 1648.150 216.306, 1647.387 214.846 C 1646.624 213.386, 1646 211.502, 1646 210.659 C 1646 209.816, 1644.067 206.285, 1641.704 202.813 C 1639.341 199.341, 1636.806 195.023, 1636.070 193.218 C 1635.333 191.413, 1633.397 188.263, 1631.766 186.218 C 1630.135 184.173, 1627.897 180.700, 1626.792 178.500 C 1625.688 176.300, 1623.032 172.394, 1620.892 169.821 C 1618.751 167.247, 1617 164.822, 1617 164.433 C 1617 163.756, 1603.005 146.309, 1598.605 141.500 C 1597.447 140.235, 1594.025 136.405, 1591 132.988 C 1584.656 125.824, 1576.075 117.412, 1570.944 113.329 C 1568.989 111.773, 1565.670 108.825, 1563.569 106.778 C 1561.469 104.731, 1558.803 102.755, 1557.645 102.387 C 1555.500 101.706, 1550.342 98.352, 1548.511 96.448 C 1547.955 95.869, 1545.545 94.091, 1543.156 92.497 C 1540.767 90.903, 1537.192 88.114, 1535.211 86.299 C 1533.230 84.485, 1531.106 83, 1530.492 83 C 1529.877 83, 1528.071 81.640, 1526.479 79.978 C 1523.152 76.506, 1513.874 71.014, 1511.265 70.972 C 1510.294 70.956, 1506.812 69.158, 1503.527 66.975 C 1500.241 64.793, 1495.966 62.722, 1494.027 62.375 C 1492.087 62.027, 1488.400 60.253, 1485.832 58.432 C 1483.265 56.611, 1479.440 54.839, 1477.332 54.494 C 1473.438 53.856, 1468.316 52.086, 1462 49.197 C 1460.075 48.316, 1456.475 47.046, 1454 46.374 C 1446.099 44.228, 1439.552 41.741, 1437.765 40.206 C 1436.621 39.224, 1432.531 38.472, 1425.765 37.999 C 1420.119 37.605, 1414.233 36.769, 1412.685 36.141 C 1411.137 35.513, 1408.310 35, 1406.403 35 C 1404.496 35, 1401.263 34.263, 1399.218 33.362 C 1395.822 31.865, 1379.496 31.711, 1210.500 31.573 C 1108.750 31.490, 1019.875 31.664, 1013 31.961 M 1815.169 31.964 C 1810.812 33.032, 1806.214 37.522, 1804.933 41.958 C 1804.242 44.353, 1804.006 181.006, 1804.205 464 C 1804.485 860.509, 1804.592 882.668, 1806.252 885.703 C 1807.215 887.465, 1809.646 890.503, 1811.655 892.453 C 1815.307 896, 1815.307 896, 1924.094 896 C 1989.496 896, 2033.109 895.632, 2033.452 895.077 C 2033.766 894.569, 2035.270 893.880, 2036.795 893.545 C 2038.319 893.210, 2040.889 891.535, 2042.505 889.823 C 2045.432 886.722, 2045.447 886.643, 2046.233 870.105 C 2046.668 860.972, 2046.889 670.530, 2046.725 446.900 C 2046.443 63.696, 2046.327 40.148, 2044.699 37.664 C 2040.659 31.497, 2048.586 31.916, 1928.335 31.514 C 1867.926 31.312, 1817.001 31.515, 1815.169 31.964 M 2238.355 32.428 C 2236.626 33.191, 2233.361 35.486, 2231.100 37.529 C 2226.990 41.242, 2226.990 41.242, 2227.383 323.371 C 2227.600 478.542, 2227.939 607.615, 2228.138 610.200 C 2228.337 612.785, 2229.063 615.462, 2229.750 616.150 C 2230.438 616.837, 2231 618.149, 2231 619.065 C 2231 619.981, 2231.900 621.874, 2233 623.273 C 2234.391 625.041, 2235 627.330, 2235 630.786 C 2235 633.519, 2235.675 637.371, 2236.500 639.346 C 2237.325 641.320, 2238 643.988, 2238 645.274 C 2238 646.559, 2239.125 649.136, 2240.500 651 C 2241.997 653.029, 2243 655.735, 2243 657.744 C 2243 659.589, 2243.636 662.330, 2244.414 663.834 C 2245.192 665.338, 2246.152 668.292, 2246.547 670.399 C 2246.942 672.505, 2248.781 676.529, 2250.633 679.341 C 2252.485 682.154, 2254 685.641, 2254 687.092 C 2254 688.543, 2254.900 690.874, 2256 692.273 C 2257.100 693.671, 2258 695.432, 2258 696.185 C 2258 696.939, 2258.615 698.443, 2259.366 699.527 C 2260.118 700.612, 2262.204 704.865, 2264.003 708.978 C 2265.801 713.091, 2268.509 718.041, 2270.019 719.978 C 2271.530 721.915, 2273.038 724.680, 2273.370 726.122 C 2273.702 727.564, 2275.557 730.939, 2277.493 733.622 C 2279.429 736.305, 2281.554 739.625, 2282.215 741 C 2282.877 742.375, 2286.024 746.789, 2289.209 750.809 C 2292.394 754.829, 2295 758.663, 2295 759.328 C 2295 760.378, 2300.804 767.303, 2310.250 777.524 C 2311.763 779.161, 2319.975 787.651, 2328.500 796.390 C 2337.025 805.130, 2344 812.667, 2344 813.140 C 2344 813.613, 2344.710 814, 2345.577 814 C 2346.444 814, 2348.578 815.424, 2350.318 817.164 C 2352.058 818.905, 2356.186 822.493, 2359.491 825.139 C 2362.796 827.785, 2366.277 830.625, 2367.227 831.452 C 2368.177 832.278, 2370.566 833.628, 2372.537 834.451 C 2374.508 835.275, 2378.504 837.985, 2381.418 840.474 C 2384.332 842.963, 2387.428 845, 2388.299 845 C 2389.170 845, 2390.145 845.426, 2390.467 845.947 C 2391.809 848.118, 2399.890 852.721, 2403.344 853.281 C 2405.392 853.613, 2408.740 855.186, 2410.784 856.777 C 2412.828 858.367, 2417.650 861.124, 2421.500 862.902 C 2425.350 864.681, 2429.175 866.558, 2430 867.074 C 2430.825 867.590, 2432.175 868.257, 2433 868.556 C 2433.825 868.855, 2436.075 869.921, 2438 870.926 C 2439.925 871.931, 2443.503 873.089, 2445.952 873.499 C 2451.243 874.384, 2458.246 877.262, 2461.674 879.958 C 2463.031 881.025, 2466.247 882.198, 2468.820 882.565 C 2471.394 882.931, 2475.779 883.807, 2478.564 884.512 C 2481.349 885.217, 2484.724 885.589, 2486.064 885.339 C 2487.649 885.043, 2489.703 885.778, 2491.944 887.442 C 2494.041 888.999, 2496.708 890, 2498.760 890 C 2500.614 890, 2502.915 890.419, 2503.873 890.932 C 2504.830 891.444, 2514.138 892.405, 2524.557 893.067 C 2534.976 893.729, 2543.928 894.660, 2544.450 895.136 C 2545.868 896.426, 2595.362 896.238, 2596.663 894.937 C 2597.262 894.338, 2605.669 893.483, 2615.934 892.976 C 2634.489 892.061, 2638.140 891.416, 2645.889 887.687 C 2648.303 886.525, 2652.578 885.268, 2655.389 884.893 C 2668.615 883.129, 2673.651 881.750, 2679.219 878.367 C 2683.095 876.012, 2687.004 874.565, 2691.019 873.997 C 2694.322 873.530, 2698.534 872.215, 2700.380 871.074 C 2702.226 869.933, 2704.414 869, 2705.244 869 C 2708.039 869, 2718.402 863.860, 2726.589 858.412 C 2731.063 855.435, 2735.497 853, 2736.443 853 C 2737.389 853, 2740.039 851.502, 2742.332 849.670 C 2744.624 847.839, 2748.975 845.092, 2752 843.567 C 2755.025 842.042, 2758.850 839.528, 2760.500 837.982 C 2762.150 836.435, 2765.300 834.687, 2767.500 834.097 C 2769.850 833.467, 2773.562 831.118, 2776.500 828.400 C 2779.250 825.857, 2786.450 819.155, 2792.500 813.507 C 2798.550 807.860, 2806.537 800.625, 2810.250 797.430 C 2813.963 794.235, 2817 791.268, 2817 790.837 C 2817 790.407, 2821.014 786.040, 2825.920 781.134 C 2830.826 776.229, 2836.016 770.351, 2837.454 768.073 C 2838.892 765.795, 2841.879 762.034, 2844.092 759.716 C 2846.305 757.397, 2848.718 754.150, 2849.454 752.500 C 2850.189 750.850, 2852.188 748.010, 2853.896 746.188 C 2855.603 744.367, 2857 741.994, 2857 740.916 C 2857 739.838, 2858.688 737.053, 2860.750 734.728 C 2866.097 728.700, 2868.562 724.940, 2869.415 721.509 C 2869.824 719.863, 2871.678 716.403, 2873.534 713.820 C 2875.390 711.237, 2877.637 706.615, 2878.529 703.550 C 2879.420 700.485, 2881.244 696.675, 2882.583 695.083 C 2885.163 692.018, 2890 680.256, 2890 677.050 C 2890 676.002, 2891.549 672.173, 2893.443 668.541 C 2895.941 663.747, 2897.073 660.030, 2897.570 654.985 C 2897.954 651.084, 2898.858 647.533, 2899.628 646.894 C 2900.382 646.268, 2901 645.016, 2901 644.113 C 2901 643.209, 2901.871 640.844, 2902.937 638.857 C 2904.002 636.870, 2905.156 632.377, 2905.501 628.872 C 2905.847 625.367, 2906.736 620.700, 2907.478 618.500 C 2908.220 616.300, 2909.129 609.122, 2909.498 602.548 C 2909.931 594.836, 2910.671 589.879, 2911.585 588.576 C 2912.363 587.464, 2913 585.362, 2913 583.903 C 2913 582.445, 2913.698 579.282, 2914.551 576.876 C 2915.964 572.889, 2915.956 572.033, 2914.455 567.241 C 2913.270 563.456, 2913.010 560.513, 2913.528 556.741 C 2913.923 553.858, 2914.529 442.150, 2914.874 308.500 C 2915.374 114.198, 2915.247 64.819, 2914.239 62.101 C 2913.264 59.473, 2913.241 57.976, 2914.137 55.497 C 2915.012 53.077, 2915.015 51.482, 2914.148 48.996 C 2913.517 47.184, 2913 44.439, 2913 42.896 C 2913 39.781, 2909.764 36.018, 2904.709 33.255 C 2901.695 31.607, 2894.787 31.518, 2791.120 31.792 C 2700.059 32.032, 2680.282 32.323, 2678.120 33.452 C 2674.561 35.312, 2670.355 39.896, 2669.058 43.329 C 2668.310 45.311, 2667.985 125.313, 2667.976 310.329 C 2667.969 455.623, 2667.592 576.086, 2667.138 578.024 C 2666.684 579.961, 2665.866 582.436, 2665.319 583.524 C 2664.773 584.611, 2663.747 588.192, 2663.039 591.483 C 2662.174 595.507, 2660.647 598.815, 2658.376 601.586 C 2656.519 603.852, 2655 606.196, 2655 606.795 C 2655 608.431, 2646.519 617.734, 2637.415 626.084 C 2625.448 637.061, 2622.981 639, 2620.986 639 C 2618.528 639, 2607.883 643.020, 2605.888 644.702 C 2603.190 646.975, 2598.018 648.175, 2586.500 649.200 C 2573.085 650.394, 2571.901 650.394, 2555 649.201 C 2539.764 648.125, 2535.292 647.162, 2531.423 644.118 C 2529.942 642.953, 2528.171 642, 2527.488 642 C 2526.804 642, 2525.685 641.325, 2525 640.500 C 2524.315 639.675, 2522.526 639, 2521.024 639 C 2519.494 639, 2517.102 637.897, 2515.587 636.493 C 2514.099 635.114, 2510.516 632.473, 2507.626 630.624 C 2501.628 626.787, 2490.703 615.187, 2487 608.723 C 2485.625 606.323, 2483.235 602.445, 2481.690 600.104 C 2480.144 597.764, 2478 592.412, 2476.926 588.211 C 2475.852 584.010, 2474.529 580.129, 2473.986 579.586 C 2473.444 579.044, 2472.997 577.227, 2472.993 575.550 C 2472.990 573.872, 2472.093 571.150, 2471 569.500 C 2469.030 566.526, 2469.013 564.242, 2469.007 304.444 C 2469 42.389, 2469 42.389, 2466.545 39.061 C 2465.194 37.230, 2462.607 34.780, 2460.795 33.616 C 2457.500 31.500, 2457.500 31.500, 2349.500 31.271 C 2259.240 31.080, 2240.983 31.270, 2238.355 32.428 M 3108.407 31.791 C 3101.775 32.062, 3101.092 32.310, 3097.907 35.596 C 3094.500 39.111, 3094.500 39.111, 3094.500 462.975 C 3094.500 886.839, 3094.500 886.839, 3097 889.511 C 3098.375 890.980, 3101.272 893.041, 3103.438 894.091 C 3107.238 895.933, 3111.128 896, 3214.688 896 C 3285.563 896, 3322 895.660, 3322 895 C 3322 894.450, 3322.585 894, 3323.300 894 C 3324.015 894, 3326.510 892.763, 3328.845 891.250 C 3332.533 888.862, 3333.350 887.645, 3335.061 882 C 3336.998 875.609, 3337.024 872.295, 3336.605 684 C 3336.371 578.675, 3336.125 490.925, 3336.058 489 C 3335.844 482.878, 3336.473 476.014, 3337.272 475.753 C 3337.696 475.614, 3343.974 481.125, 3351.222 488 C 3358.470 494.875, 3367.080 502.975, 3370.354 506 C 3373.628 509.025, 3380.332 515.438, 3385.251 520.250 C 3390.170 525.063, 3394.440 529, 3394.739 529 C 3395.506 529, 3405.258 537.407, 3412.109 543.975 C 3415.279 547.014, 3420.032 551.075, 3422.671 553 C 3425.310 554.925, 3430.934 559.875, 3435.169 564 C 3439.404 568.125, 3445.424 573.750, 3448.548 576.500 C 3451.671 579.250, 3455.249 582.564, 3456.500 583.864 C 3457.750 585.164, 3459.386 586.859, 3460.136 587.630 C 3460.886 588.402, 3463.975 591.093, 3467 593.611 C 3472.923 598.541, 3490.905 614.980, 3497.507 621.500 C 3499.735 623.700, 3503.345 626.724, 3505.529 628.220 C 3507.713 629.715, 3513.541 635.003, 3518.479 639.970 C 3523.418 644.936, 3527.925 649, 3528.495 649 C 3529.065 649, 3532.180 651.700, 3535.417 655 C 3541.303 661, 3541.303 661, 3547.650 661 C 3553.670 661, 3554.204 660.800, 3557.999 657.117 C 3560.199 654.981, 3562 652.776, 3562 652.216 C 3562 651.656, 3563.486 650.321, 3565.303 649.249 C 3568.917 647.117, 3573.248 643.424, 3582.017 635 C 3585.165 631.975, 3590.977 626.800, 3594.932 623.500 C 3598.886 620.200, 3606.905 612.888, 3612.752 607.250 C 3618.599 601.612, 3623.739 597, 3624.173 597 C 3624.608 597, 3634.084 588.026, 3645.232 577.057 C 3672.954 549.780, 3672.721 550, 3673.891 550 C 3675.932 550, 3723.470 506.685, 3740.017 489.750 C 3744.719 484.938, 3749.226 480.990, 3750.033 480.978 C 3750.840 480.966, 3752.625 480.076, 3754 479 C 3755.375 477.924, 3756.831 477.034, 3757.236 477.022 C 3757.641 477.010, 3758.091 568.913, 3758.236 681.250 C 3758.500 885.500, 3758.500 885.500, 3761.369 889.250 C 3762.946 891.313, 3764.746 893.003, 3765.369 893.006 C 3765.991 893.010, 3767.794 893.687, 3769.375 894.512 C 3771.878 895.817, 3786.121 896.008, 3879.625 895.991 C 3940.225 895.980, 3987 895.590, 3987 895.097 C 3987 894.616, 3988.463 893.934, 3990.250 893.582 C 3992.037 893.230, 3994.963 891.611, 3996.750 889.985 C 4000 887.028, 4000 887.028, 4000 463.022 C 4000 39.015, 4000 39.015, 3997.838 36.528 C 3992.879 30.825, 3991.620 30.713, 3938.726 31.266 C 3892.282 31.752, 3890.206 31.854, 3886.297 33.848 C 3884.059 34.990, 3880.757 37.854, 3878.958 40.212 C 3875.021 45.376, 3867.443 52.611, 3864 54.494 C 3862.625 55.246, 3858.350 58.848, 3854.500 62.499 C 3850.650 66.149, 3845.925 70.332, 3844 71.794 C 3842.075 73.255, 3831.937 82.562, 3821.472 92.476 C 3790.654 121.667, 3784.849 127.015, 3778 132.522 C 3774.425 135.397, 3765.953 143.205, 3759.172 149.874 C 3752.392 156.543, 3746.227 162, 3745.472 162 C 3744.717 162, 3742.407 164.025, 3740.338 166.500 C 3738.269 168.975, 3735.982 171, 3735.255 171 C 3734.527 171, 3733.034 172.524, 3731.935 174.386 C 3730.836 176.248, 3728.196 178.978, 3726.068 180.453 C 3723.939 181.928, 3719.116 186.367, 3715.349 190.317 C 3711.582 194.268, 3707.745 197.950, 3706.822 198.500 C 3704.569 199.843, 3693.206 209.905, 3690.591 212.874 C 3689.441 214.180, 3684.225 218.638, 3679 222.781 C 3670.505 229.517, 3658.727 240.400, 3644.941 254.250 C 3642.341 256.863, 3639.918 259, 3639.558 259 C 3638.615 259, 3614.695 280.991, 3613.500 282.956 C 3612.950 283.860, 3609.350 287.402, 3605.500 290.828 C 3601.650 294.253, 3596.185 299.293, 3593.356 302.028 C 3590.527 304.763, 3587.878 307, 3587.468 307 C 3585.800 307, 3571.876 319.114, 3562.482 328.737 C 3552.602 338.859, 3552.400 339, 3547.795 339 C 3543.274 339, 3542.845 338.725, 3534.313 330.344 C 3525.865 322.046, 3515.470 313.069, 3508.691 308.216 C 3506.936 306.960, 3503.831 304.147, 3501.790 301.966 C 3499.750 299.785, 3497.710 298, 3497.258 298 C 3496.806 298, 3492.638 294.288, 3487.997 289.750 C 3483.356 285.212, 3478.584 280.825, 3477.392 280 C 3476.200 279.175, 3466.287 269.903, 3455.362 259.396 C 3430.881 235.849, 3414.359 220.797, 3410.258 218.303 C 3408.546 217.262, 3405.875 215.187, 3404.323 213.692 C 3402.770 212.197, 3398.625 208.392, 3395.111 205.237 C 3391.597 202.081, 3384.195 195.113, 3378.663 189.750 C 3373.131 184.388, 3368.264 180, 3367.847 180 C 3367.186 180, 3362.815 175.761, 3353.153 165.751 C 3351.694 164.239, 3350.184 163.002, 3349.797 163.001 C 3348.788 163, 3330.081 146.252, 3327.048 142.635 C 3323.447 138.340, 3316.067 131.617, 3314.132 130.868 C 3313.234 130.521, 3308.900 126.771, 3304.500 122.536 C 3300.100 118.301, 3294.925 113.656, 3293 112.214 C 3288.246 108.652, 3278 98.344, 3278 97.123 C 3278 96.579, 3277.016 95.823, 3275.814 95.441 C 3273.417 94.680, 3259.342 81.879, 3257.093 78.414 C 3256.319 77.221, 3254.519 75.527, 3253.093 74.649 C 3251.667 73.770, 3246.450 69.157, 3241.500 64.396 C 3236.550 59.636, 3230.841 54.519, 3228.813 53.025 C 3226.785 51.531, 3221.610 47.048, 3217.313 43.062 C 3203.900 30.621, 3208.372 31.500, 3158.500 31.500 C 3134.850 31.500, 3112.308 31.631, 3108.407 31.791 M 442 232.035 C 440.075 232.545, 436.475 232.941, 434 232.915 C 423.986 232.811, 403.012 234.745, 401.619 235.901 C 400.811 236.572, 396.629 237.498, 392.325 237.960 C 384.028 238.850, 378.707 240.459, 373 243.803 C 371.075 244.931, 367.700 246.151, 365.500 246.515 C 360.668 247.313, 355.710 249.439, 354.070 251.416 C 352.404 253.423, 345.344 257, 343.047 257 C 342.007 257, 339.208 258.559, 336.828 260.464 C 334.447 262.369, 330.176 265.123, 327.337 266.584 C 324.497 268.044, 320.060 270.986, 317.478 273.120 C 314.895 275.254, 312.350 277, 311.823 277 C 311.295 277, 308.923 279.025, 306.552 281.500 C 304.180 283.975, 301.810 286, 301.284 286 C 299.947 286, 287 299.551, 287 300.951 C 287 301.580, 285.931 303.087, 284.625 304.298 C 281.170 307.501, 269 323.005, 269 324.203 C 269 324.764, 267.301 327.310, 265.223 329.861 C 261.364 334.601, 257.026 342.613, 256.967 345.110 C 256.949 345.874, 255.149 348.288, 252.967 350.473 C 249.339 354.106, 249 354.901, 249 359.766 C 249 363.932, 248.250 366.475, 245.541 371.492 C 243.537 375.204, 241.799 380.126, 241.407 383.199 C 241.036 386.114, 240.327 389.286, 239.833 390.246 C 239.338 391.207, 238.459 394.561, 237.878 397.700 C 237.298 400.839, 235.549 405.932, 233.991 409.019 C 229.165 418.578, 227.988 435.355, 229.924 467 C 230.641 478.725, 231.109 481.223, 233.483 486 C 236.188 491.444, 239.460 504.183, 240.982 515.196 C 241.435 518.474, 242.667 522.032, 243.885 523.580 C 245.048 525.060, 246 526.829, 246 527.512 C 246 528.196, 246.675 529.315, 247.500 530 C 248.467 530.802, 249 533.019, 249 536.234 C 249 540.591, 249.506 541.827, 253 546 C 255.200 548.628, 257 551.310, 257 551.961 C 257 553.230, 261.641 561.523, 263.737 564 C 265.512 566.097, 274.449 578.597, 278.037 584 C 283.241 591.838, 298.070 608.632, 301.969 611.105 C 303.361 611.988, 305.789 614.012, 307.363 615.605 C 308.938 617.197, 312.142 619.625, 314.482 621 C 323.049 626.033, 332.910 633.071, 334.847 635.532 C 335.940 636.922, 339.009 638.734, 341.667 639.561 C 344.325 640.387, 348.075 641.928, 350 642.986 C 356.726 646.680, 362.275 649.040, 366.870 650.160 C 369.416 650.780, 373.372 652.795, 375.659 654.636 C 379.514 657.740, 380.574 658.052, 390.159 658.908 C 396.767 659.498, 403.027 660.755, 407.500 662.390 C 414.444 664.928, 414.749 664.949, 445.739 664.974 C 474.480 664.998, 477.598 664.831, 484.739 662.885 C 489.007 661.721, 493.250 660.375, 494.167 659.894 C 495.084 659.412, 499.722 658.946, 504.473 658.857 C 512.716 658.703, 513.323 658.534, 517.755 655.150 C 520.309 653.199, 524.555 650.999, 527.189 650.260 C 529.823 649.520, 534.346 648.256, 537.239 647.450 C 540.133 646.644, 542.645 645.554, 542.822 645.028 C 542.998 644.501, 546.468 642.471, 550.532 640.517 C 554.596 638.562, 558.277 636.346, 558.711 635.593 C 559.145 634.840, 562.307 632.710, 565.738 630.860 C 569.169 629.011, 573.219 626.513, 574.738 625.310 C 576.257 624.107, 580.875 620.436, 585 617.153 C 595.186 609.045, 618.071 585.027, 624.314 575.894 C 625.590 574.027, 628.516 569.800, 630.816 566.500 C 633.116 563.200, 634.998 559.735, 634.999 558.800 C 634.999 557.865, 635.616 556.740, 636.370 556.300 C 638.006 555.344, 641.428 548.694, 642.439 544.505 C 642.836 542.857, 644.738 539.585, 646.666 537.233 C 649.475 533.804, 650.444 531.424, 651.550 525.228 C 653.397 514.887, 654.314 512.027, 657.550 506.505 C 660.798 500.962, 661.127 495.800, 661.274 448 C 661.401 406.597, 660.312 393.449, 656.382 388.930 C 655.631 388.067, 654.595 385.142, 654.080 382.430 C 653.565 379.719, 652.661 376.233, 652.072 374.685 C 651.482 373.137, 651 370.584, 651 369.012 C 651 367.440, 649.968 364.881, 648.707 363.327 C 644.852 358.574, 643.333 355.671, 642.580 351.614 C 641.933 348.130, 638.826 342.477, 636.695 340.907 C 636.253 340.581, 634.671 337.861, 633.180 334.861 C 631.689 331.862, 628.864 327.404, 626.902 324.954 C 624.941 322.504, 622.327 318.475, 621.093 316 C 617.933 309.659, 588.210 279.216, 582.474 276.446 C 580.810 275.642, 577.210 273.028, 574.474 270.637 C 571.738 268.246, 568.401 265.941, 567.058 265.516 C 565.716 265.091, 562.413 263.001, 559.719 260.872 C 557.025 258.742, 554.073 256.990, 553.160 256.978 C 552.247 256.966, 550.375 256.076, 549 255 C 547.625 253.924, 546.079 253.034, 545.564 253.022 C 545.050 253.010, 543.700 252.171, 542.564 251.158 C 541.429 250.146, 537.800 248.552, 534.500 247.617 C 531.200 246.682, 527.375 245.272, 526 244.484 C 518.562 240.219, 513.929 238.687, 506.500 238.038 C 502.100 237.654, 496.925 236.824, 495 236.195 C 484.035 232.610, 477.820 231.710, 462 231.415 C 452.925 231.245, 443.925 231.524, 442 232.035 M 1234.963 238.831 C 1232.500 240.827, 1232.500 240.827, 1232.425 338.164 C 1232.384 391.699, 1232.235 440.900, 1232.094 447.500 C 1231.953 454.100, 1231.874 460.063, 1231.919 460.750 C 1231.983 461.738, 1247.728 462, 1307.092 462 C 1380.670 462, 1382.236 461.960, 1384.727 460 C 1386.126 458.900, 1387.873 458, 1388.611 458 C 1389.348 458, 1391.425 457.102, 1393.226 456.004 C 1395.511 454.610, 1398.269 454.006, 1402.356 454.004 C 1407.417 454.001, 1408.754 453.571, 1412.200 450.841 C 1417.257 446.837, 1422.898 443, 1423.730 443 C 1424.083 443, 1426.425 441.299, 1428.936 439.221 C 1431.446 437.142, 1434.663 434.705, 1436.085 433.806 C 1438.557 432.242, 1442.198 428.625, 1448.979 421 C 1450.691 419.075, 1453.147 415.475, 1454.438 413 C 1455.728 410.525, 1457.707 407.666, 1458.835 406.646 C 1459.964 405.627, 1461.174 403.377, 1461.526 401.646 C 1461.877 399.916, 1463.975 393.325, 1466.189 387 C 1472.210 369.795, 1472.612 366.941, 1471.895 346.500 C 1471.248 328.030, 1470.016 321.133, 1464.843 307.007 C 1463.734 303.978, 1462.602 300.127, 1462.327 298.448 C 1462.052 296.769, 1460.066 293.430, 1457.914 291.028 C 1455.761 288.626, 1454 285.830, 1454 284.815 C 1454 283.228, 1448.475 277.380, 1431.922 261.444 C 1429.954 259.550, 1427.953 258, 1427.476 258 C 1426.432 258, 1418.911 252.977, 1417.500 251.338 C 1415.876 249.451, 1408.703 246, 1406.404 246 C 1405.235 246, 1402.754 244.967, 1400.890 243.705 C 1392.456 237.994, 1395.682 238.209, 1316.119 238.052 C 1275.787 237.973, 1241.581 237.666, 1240.106 237.371 C 1238.301 237.010, 1236.621 237.487, 1234.963 238.831" stroke="none" fill="#ffffff" fill-rule="evenodd"/></svg>