<svg xmlns="http://www.w3.org/2000/svg" width="4096" height="980" viewBox="0 0 4096 980" version="1.1"><path d="M 2577.791 0.542 C 2577.513 0.821, 2574.081 1.936, 2570.165 3.022 C 2535.612 12.597, 2508.660 36.484, 2489.827 74.226 C 2477.412 99.106, 2468 134.914, 2468 157.268 C 2468 172.680, 2473.204 190.816, 2481.156 203.120 C 2486.324 211.116, 2496.681 221.920, 2504.648 227.627 C 2512.489 233.242, 2527.225 240.223, 2537.500 243.187 C 2544.660 245.253, 2547.443 245.484, 2564 245.379 C 2608.307 245.100, 2648.751 233.830, 2679.424 213.215 C 2705.408 195.751, 2725.236 169.473, 2733.537 141.500 C 2737.134 129.380, 2738.066 111.197, 2735.539 102.445 C 2730.552 85.172, 2718.106 72.268, 2696.019 61.471 C 2691.333 59.181, 2684.800 56.262, 2681.500 54.985 C 2678.200 53.708, 2675.406 52.608, 2675.292 52.540 C 2675.177 52.472, 2675.724 49.736, 2676.506 46.458 C 2678.757 37.029, 2678.415 27.419, 2675.617 21.500 C 2671.034 11.807, 2665.779 8.635, 2641.673 1.010 C 2638.747 0.084, 2578.688 -0.355, 2577.791 0.542 M 3424 0.937 C 3423.175 1.387, 3418.450 2.993, 3413.500 4.505 C 3376.327 15.859, 3350.896 41.502, 3330.698 88 C 3321.717 108.674, 3314.162 145.103, 3315.350 162 C 3317.842 197.421, 3339.444 225.923, 3374 239.379 C 3389.340 245.352, 3402.167 246.792, 3424.500 245.046 C 3472.926 241.259, 3508.503 228.656, 3538.171 204.777 C 3562.601 185.114, 3580.909 153.463, 3584.103 125.371 C 3586.999 99.903, 3577.394 81.443, 3553.784 67.100 C 3548.195 63.704, 3530.631 55, 3529.369 55 C 3529.131 55, 3527.408 54.362, 3525.541 53.582 C 3522.147 52.164, 3522.147 52.164, 3523.691 46.332 C 3525.647 38.943, 3525.832 28.639, 3524.098 23.619 C 3521.399 15.800, 3513.136 9.005, 3501.420 4.970 C 3488.165 0.405, 3484.240 -0.003, 3454.188 0.059 C 3438.410 0.091, 3424.825 0.486, 3424 0.937 M 2174.969 4.536 C 2160.609 8.963, 2148.543 30.204, 2139.486 67 C 2136.896 77.525, 2132.408 100.564, 2128.481 123.500 C 2121.826 162.369, 2119.632 175.105, 2115.991 196 C 2113.835 208.375, 2111.380 222.438, 2110.536 227.250 C 2109.691 232.062, 2108.353 239.712, 2107.563 244.250 C 2100.128 286.937, 2092.779 324.554, 2091.655 325.678 C 2091.317 326.016, 2088.981 324.394, 2086.464 322.074 C 2079.982 316.099, 2059.313 302.798, 2047.507 297.004 C 2028.864 287.856, 2007.877 281.338, 1988 278.523 C 1972.172 276.282, 1941.708 276.527, 1925.500 279.025 C 1878.491 286.270, 1837.374 308.558, 1798.867 347.669 C 1773.864 373.063, 1749.668 407.414, 1732.950 441.250 C 1729.169 448.903, 1730.080 448.601, 1715.500 447.030 C 1709.125 446.343, 1707.043 446.460, 1705.250 447.607 C 1704.013 448.398, 1703 449.489, 1703 450.031 C 1703 451.679, 1686.503 484.206, 1681.401 492.617 C 1669.922 511.543, 1656.411 527.493, 1645.500 535 C 1632.456 543.975, 1616.168 548.475, 1605.429 546.072 C 1600.779 545.031, 1598.796 543.869, 1594.470 539.651 C 1586.166 531.553, 1584.520 523.343, 1587.422 504.500 C 1591.883 475.538, 1601.792 447.838, 1624.985 399.500 C 1646.615 354.419, 1651.486 341.565, 1652.636 326.539 C 1655.282 291.931, 1623.171 269.858, 1561.500 263.893 C 1547.853 262.573, 1529.895 263.246, 1519.500 265.468 C 1502.530 269.095, 1485.827 281.355, 1479.265 295 C 1476.016 301.756, 1469.708 320.501, 1463.447 342 C 1439.896 422.882, 1411.967 502.540, 1406.414 504.671 C 1404.253 505.501, 1402.157 502.778, 1402.625 499.749 C 1402.816 498.512, 1403.690 493.225, 1404.567 488 C 1405.445 482.775, 1406.352 476.700, 1406.583 474.500 C 1407.199 468.635, 1411.351 443.989, 1416.522 415.500 C 1429.277 345.228, 1433 323.055, 1433 317.358 C 1433 315.160, 1431.653 314.221, 1421.750 309.517 C 1399.016 298.717, 1366.199 286.572, 1346.500 281.669 C 1323.973 276.062, 1304.852 274.965, 1295.281 278.731 C 1282.743 283.664, 1271.457 295.938, 1262.505 314.374 C 1247.016 346.274, 1239.270 382.643, 1229.036 471.500 C 1225.226 504.589, 1224.068 514.249, 1218.551 559 C 1210.461 624.627, 1207.158 651.763, 1206.424 658.628 C 1205.546 666.847, 1205.062 667.501, 1200.869 666.141 C 1190.077 662.641, 1159.706 660.118, 1150.462 661.954 C 1142.241 663.587, 1131.469 667.856, 1129.174 670.392 C 1128.124 671.551, 1126.239 676.775, 1124.985 682 C 1117.009 715.222, 1098.130 754.293, 1075.255 784.919 C 1064.233 799.676, 1040.595 823.341, 1028 832.228 C 1009.619 845.198, 984.682 856.152, 964.500 860.123 C 960.225 860.964, 950.882 861.500, 940.500 861.500 C 922.083 861.500, 915.126 860.138, 903.531 854.263 C 897.421 851.166, 886.339 840.222, 882.769 833.758 C 873.339 816.684, 869.901 794.081, 871.880 762.163 C 874.400 721.506, 880.743 687.736, 892.827 650.638 C 895.714 641.776, 895.714 641.776, 902.754 650.205 C 926.743 678.926, 954.771 693.370, 989.089 694.697 C 1014.996 695.699, 1031.097 690.859, 1055.061 674.866 C 1066.516 667.221, 1091.673 642.525, 1100.536 630.223 C 1121.467 601.175, 1137.503 569.005, 1147.753 535.500 C 1154.849 512.308, 1157.800 499.033, 1161.092 475.500 C 1162.934 462.326, 1163.338 454.820, 1163.377 433 C 1163.422 407.933, 1163.279 405.819, 1160.737 393.898 C 1154.871 366.401, 1144.580 344.491, 1127.634 323.424 C 1087.331 273.320, 1009.645 241.767, 948.117 250.512 C 927.434 253.452, 913.580 257.685, 895.865 266.476 C 868.057 280.277, 843.308 300.644, 817.763 330.752 C 811.112 338.590, 805.527 344.861, 805.352 344.686 C 805.177 344.511, 805.487 342.822, 806.041 340.934 C 806.594 339.045, 808.025 331.875, 809.220 325 C 811.087 314.259, 811.397 308.629, 811.425 285 C 811.454 260.014, 811.248 256.540, 809.172 247 C 800.780 208.441, 781.943 175.435, 751.786 146.446 C 723.956 119.695, 688.469 97.853, 645 80.721 C 591.538 59.650, 533.927 47.128, 464.667 41.523 C 398.543 36.173, 316.096 38.319, 251.500 47.073 C 142.132 61.894, 55.923 95.497, 9.343 141.463 C 0.186 150.500, 0.186 150.500, 2.548 159.600 C 6.730 175.707, 12.756 188.574, 23.858 205.102 C 39.905 228.993, 62.811 248.810, 77.581 251.581 C 79.474 251.936, 81.282 252.648, 81.600 253.162 C 81.941 253.714, 82.756 253.617, 83.589 252.926 C 84.457 252.206, 85 252.149, 85 252.780 C 85 253.881, 92.112 252.063, 96.196 249.918 C 97.463 249.252, 104.735 242.242, 112.356 234.339 C 134.193 211.694, 154.886 196.188, 182.127 182.055 C 226.605 158.980, 273.245 148.895, 335.500 148.890 C 421.997 148.884, 483.876 163.250, 529.918 194.027 C 580.615 227.914, 601.224 283.148, 589.423 353.500 C 581.998 397.763, 561.764 435.827, 528.771 467.596 C 500.558 494.763, 465.864 514.410, 424 526.926 C 411.937 530.533, 392.863 535, 389.526 535 C 388.605 535, 388.998 531.882, 391.009 523.250 C 392.515 516.788, 395.638 502.725, 397.950 492 C 402.898 469.047, 419.101 400.002, 425.407 375 C 438.553 322.882, 447.816 290.419, 459.768 254.583 C 467.412 231.667, 467.412 231.667, 461.956 226.778 C 452.035 217.887, 427.658 207.078, 403 200.635 C 353.517 187.706, 314.470 187.865, 293.877 201.079 C 268.436 217.404, 249.684 271.072, 200.435 468.500 C 187.998 518.358, 186.232 525, 185.411 525 C 184.537 525, 162.227 518.092, 153 514.964 C 138.505 510.051, 120.275 501.998, 98.712 490.983 C 87.110 485.056, 77.980 481, 76.241 481 C 72.517 481, 62.789 487.263, 57.466 493.086 C 48.585 502.801, 41.037 516.859, 36.831 531.518 C 34.897 538.255, 34.541 541.840, 34.548 554.500 C 34.556 568.305, 34.778 570.137, 37.336 577.500 C 41.099 588.329, 46.964 597.941, 54.350 605.384 C 70.259 621.413, 89.342 628.647, 136.502 636.526 C 148.601 638.547, 158.619 640.312, 158.765 640.449 C 158.911 640.585, 154.772 659.777, 149.568 683.098 C 144.364 706.419, 138.037 735.400, 135.507 747.500 C 130.478 771.551, 128.041 783.121, 125.027 797.250 C 122.799 807.697, 109.403 876.425, 105.585 897 C 104.207 904.425, 102.298 914.670, 101.342 919.767 C 99.828 927.848, 99.791 929.209, 101.053 930.401 C 106.840 935.864, 178.454 959.801, 222 970.826 C 256.705 979.613, 258.830 980, 272.364 980 C 283.777 980, 285.546 979.757, 289.785 977.609 C 294.994 974.969, 303.182 966.840, 307.465 960.056 C 315.054 948.034, 321.373 931.696, 336.109 886 C 340.631 871.975, 346.942 853.871, 350.133 845.770 C 358.188 825.317, 358.200 821.600, 350.217 818.222 C 347.623 817.124, 343.025 815.520, 340 814.657 C 336.975 813.794, 333.651 812.467, 332.614 811.708 C 330.369 810.065, 330.074 812.039, 338.993 769 C 349.278 719.370, 357.950 677.277, 361.245 661 C 362.970 652.475, 364.467 645.366, 364.572 645.202 C 364.676 645.039, 367.853 644.469, 371.631 643.936 C 426.739 636.168, 450.147 631.512, 494.500 619.499 C 497.250 618.754, 507.375 615.584, 517 612.455 C 571.728 594.662, 621.687 569.933, 663.500 539.941 C 685.803 523.944, 710.811 502.416, 725.524 486.551 C 730.912 480.740, 735.510 476.177, 735.743 476.410 C 735.976 476.643, 735.304 478.786, 734.248 481.171 C 733.193 483.557, 729.804 493.382, 726.717 503.004 C 701.412 581.886, 688.656 654.755, 687.307 728.150 C 686.660 763.291, 687.564 774.013, 692.983 795.500 C 707.988 854.997, 750.063 904.482, 813.368 937.088 C 847.433 954.633, 883.717 965.898, 924.500 971.591 C 942.427 974.094, 985.280 974.623, 1004.666 972.581 C 1067.129 966.003, 1116.116 947.351, 1161.829 912.741 C 1174.211 903.365, 1202.305 875.639, 1205.862 869.282 C 1206.697 867.790, 1207.724 868.046, 1215.648 871.723 C 1250.475 887.886, 1304.796 902.630, 1348 907.647 C 1361.636 909.230, 1391.499 909.167, 1395.239 907.547 C 1397.461 906.585, 1398.646 901.790, 1399.452 890.500 C 1400.875 870.560, 1405.691 834.913, 1410.530 808.500 C 1424.660 731.377, 1445.829 656.260, 1476.476 574.500 C 1479.447 566.572, 1491.051 539.783, 1494.163 533.664 C 1496.623 528.828, 1496.623 528.828, 1497.881 541.164 C 1501.856 580.134, 1513.370 608.463, 1533.423 628.610 C 1553.758 649.041, 1584.470 660.065, 1620.784 659.969 C 1636.538 659.928, 1652.554 657.542, 1671.698 652.386 C 1673.824 651.813, 1673.856 651.920, 1672.698 655.647 C 1671.864 658.330, 1671.509 669.825, 1671.529 693.500 C 1671.556 724.392, 1671.769 728.720, 1673.864 740.851 C 1683.553 796.974, 1705.299 842.563, 1738.982 877.369 C 1756.986 895.974, 1774 908.503, 1795.404 918.918 C 1827.007 934.295, 1854.620 940.423, 1892.500 940.466 C 1911.393 940.487, 1916.053 940.175, 1925.500 938.254 C 1982.233 926.721, 2028.313 888.995, 2064.163 824.729 C 2072.180 810.358, 2071.929 810.696, 2073.567 812.056 C 2074.432 812.774, 2075.001 815.078, 2075.003 817.872 C 2075.004 820.418, 2076.123 826.674, 2077.490 831.775 C 2088.528 872.975, 2119.706 901.903, 2163 911.113 C 2177.557 914.210, 2205.111 914.200, 2225.797 911.090 C 2267.022 904.893, 2306.923 888.583, 2341 863.999 C 2344.575 861.420, 2348.238 859.049, 2349.140 858.729 C 2350.341 858.303, 2352.515 860.467, 2357.267 866.824 C 2383.827 902.345, 2424.612 922.472, 2481.404 928.084 C 2498.801 929.803, 2536.915 928.736, 2553.500 926.065 C 2598.069 918.889, 2639.642 902.679, 2676.974 877.919 C 2694.245 866.465, 2707.819 855.107, 2723.319 839.143 C 2729.269 833.014, 2734.278 828, 2734.451 828 C 2734.624 828, 2736.628 830.860, 2738.905 834.355 C 2750.383 851.972, 2762.690 866.224, 2776.245 877.598 C 2806.667 903.125, 2841.427 917.682, 2886 923.563 C 2903.473 925.869, 2949.724 925.057, 2972 922.053 C 3020.589 915.503, 3059.382 904.377, 3097.500 886.063 C 3129.248 870.808, 3148.047 857.829, 3171.881 834.709 C 3181.566 825.315, 3182.355 824.765, 3183.631 826.511 C 3184.384 827.540, 3185 828.906, 3185 829.546 C 3185 832.630, 3194.760 852.458, 3200.691 861.425 C 3208.963 873.929, 3225.214 890.381, 3237.071 898.254 C 3260.609 913.885, 3290.562 923.997, 3323.758 927.520 C 3341.702 929.425, 3373.016 929.409, 3389.442 927.488 C 3453.491 919.995, 3514.214 892.373, 3559.525 850.118 C 3574.311 836.329, 3572.064 837.042, 3577.788 844.325 C 3580.575 847.872, 3587.050 855.162, 3592.178 860.527 C 3628.382 898.406, 3674.195 921.506, 3730.211 930.125 C 3747.423 932.774, 3785.580 933.783, 3802.596 932.040 C 3900.953 921.965, 3976.268 864.098, 4029.112 758 C 4057.915 700.171, 4078.962 628.968, 4087.936 559 C 4092.259 525.293, 4093.270 509.607, 4092.643 486 C 4091.294 435.266, 4084.337 401.648, 4068.740 370.500 C 4043.207 319.508, 3993.919 288.484, 3924.325 279.598 C 3903.182 276.898, 3876.446 275.748, 3861.184 276.882 C 3841.406 278.352, 3821.834 283.160, 3810.813 289.258 C 3807.125 291.298, 3807.125 291.298, 3802.056 286.740 C 3795.411 280.766, 3783.680 273.956, 3771.489 268.996 C 3760.199 264.402, 3758.300 264.243, 3748.608 267.081 C 3735.767 270.842, 3732.613 272.033, 3722.500 276.941 C 3649.690 312.275, 3574.326 414.457, 3537.702 527.500 C 3523.763 570.521, 3515.045 618.350, 3515.008 652 C 3514.987 670.355, 3511.833 686.347, 3502.780 714 C 3488.905 756.384, 3469.446 787.520, 3447.799 801.975 C 3438.457 808.214, 3431.850 810.376, 3421.925 810.443 C 3413.974 810.496, 3413.076 810.291, 3409.570 807.619 C 3392.382 794.520, 3391.079 761.410, 3404.990 691.206 C 3418.013 625.482, 3448.030 511.121, 3477.226 416 C 3483.753 394.734, 3487 382.464, 3487 379.068 C 3487 371.651, 3480.684 359.953, 3472.306 351.854 C 3449.309 329.620, 3386.314 306.848, 3331.500 300.953 C 3305.711 298.179, 3293.392 303.011, 3286.495 318.607 C 3276.357 341.530, 3252.742 409.637, 3237.989 458.500 C 3219.186 520.777, 3198.364 600.616, 3190.525 640.500 C 3187.730 654.717, 3188.849 653.457, 3182.063 650.032 C 3165.978 641.912, 3154.193 639.043, 3133.859 638.297 C 3115.926 637.639, 3117.140 637.048, 3114.992 647.487 C 3113.097 656.694, 3106.400 675.293, 3100.530 687.651 C 3085.181 719.964, 3063.540 748.761, 3039.551 768.795 C 3016.399 788.129, 2992.299 799.021, 2966.102 801.988 C 2941.053 804.826, 2927.410 794.659, 2922.394 769.417 C 2918.794 751.302, 2923.886 698.847, 2934.131 648.500 C 2945.738 591.461, 2959.027 539.078, 2984.995 448 C 2993.691 417.500, 2993.691 417.500, 2999.595 416.791 C 3002.843 416.401, 3019 414.938, 3035.500 413.541 C 3101.790 407.928, 3148.121 405.056, 3206 402.972 C 3248.178 401.453, 3250.816 400.917, 3255.217 392.968 C 3258.129 387.710, 3257.129 380.635, 3251.549 367.011 C 3245.432 352.077, 3233.977 329.246, 3228.356 320.787 C 3224.526 315.022, 3223.020 313.659, 3217.698 311.140 C 3214.289 309.527, 3205.675 305.444, 3198.555 302.066 C 3181.046 293.760, 3170.772 286.730, 3162.130 277.144 C 3152.076 265.992, 3148.998 264.778, 3129.323 264.204 C 3120.976 263.960, 3103.651 264.312, 3090.823 264.986 C 3033.932 267.974, 3038.841 271.924, 3051.685 233.500 C 3060.415 207.385, 3062.837 199.020, 3062.129 197.430 C 3059.768 192.128, 3031.483 175.781, 3005.358 164.620 C 2970.165 149.584, 2939.502 141.005, 2920.946 141.001 C 2904.339 140.998, 2894.760 150.548, 2872.751 189.051 C 2863.921 204.497, 2845.640 243.006, 2831.474 276 C 2828.287 283.425, 2824.914 290.325, 2823.979 291.333 C 2822.767 292.639, 2818.864 293.706, 2810.390 295.047 C 2743.315 305.665, 2708.489 312.143, 2684.337 318.491 C 2657.821 325.462, 2652.226 328.568, 2649.649 337.752 C 2646.952 347.365, 2647.469 352.872, 2653.079 374.290 C 2658.005 393.094, 2667.626 412.682, 2678.955 426.971 C 2680.905 429.430, 2683.175 432.293, 2684 433.332 C 2686.914 437.005, 2689.291 438.939, 2697.082 443.975 C 2704.408 448.709, 2708.472 449.987, 2716.235 449.994 C 2721.123 449.999, 2759.943 444.977, 2766.775 443.456 C 2769.507 442.848, 2769.721 441.700, 2762.759 465 C 2737.359 550.013, 2726.239 594.810, 2715.392 655.809 C 2713.705 665.295, 2713.397 666.073, 2711.530 665.553 C 2704.047 663.471, 2670.434 659.233, 2669.423 660.243 C 2669.207 660.460, 2668.111 665.106, 2666.988 670.569 C 2655.942 724.300, 2634.919 770.741, 2611.746 792.601 C 2599.171 804.464, 2586.163 810.937, 2574.815 810.979 C 2567.804 811.005, 2564.466 809.800, 2560.161 805.689 C 2555.439 801.180, 2552.191 794.251, 2549.832 783.655 C 2546.037 766.611, 2548.757 736.334, 2558.470 687.500 C 2571.512 621.927, 2597.658 522.226, 2629.014 418.500 C 2639.156 384.949, 2640.341 378.170, 2637.462 370.166 C 2628.523 345.307, 2586.390 322.289, 2523 307.632 C 2501.208 302.594, 2487.463 300.657, 2473 300.587 C 2449.109 300.472, 2444.952 303.698, 2434.226 330.684 C 2403.947 406.865, 2370.122 521.908, 2342.542 642.510 C 2342.289 643.616, 2340.766 645.298, 2339.156 646.249 C 2336.799 647.641, 2336.098 648.903, 2335.550 652.738 C 2333.326 668.286, 2325.754 700.581, 2320.482 717 C 2304.115 767.976, 2281.510 798.546, 2256.864 803.033 C 2246.605 804.901, 2236.204 801.064, 2230.993 793.490 C 2219.938 777.422, 2219.609 751.304, 2229.581 681.500 C 2232.647 660.035, 2242.234 602.920, 2246.450 581 C 2247.244 576.875, 2249.750 563.825, 2252.020 552 C 2257.091 525.579, 2278.835 416.948, 2286.948 377.500 C 2295.391 336.447, 2305.659 286.596, 2308.573 272.500 C 2313.464 248.851, 2320.017 215.973, 2326.014 185 C 2329.368 167.675, 2332.740 150.350, 2333.508 146.500 C 2338.535 121.288, 2345.329 79.323, 2345.407 73 C 2345.517 64.065, 2342.810 57.345, 2336.031 49.723 C 2316.667 27.951, 2262.199 9.712, 2199.500 4.003 C 2185.348 2.715, 2180.538 2.819, 2174.969 4.536 M 991.929 354.478 C 988.205 356.503, 984.970 361.662, 977.176 378 C 966.627 400.113, 948.233 444.389, 939.994 467.500 C 925.068 509.367, 913.032 551.867, 913.009 562.783 C 912.990 571.773, 921.041 582.524, 930.026 585.509 C 955.311 593.907, 981.471 553.777, 996.852 483 C 1006.765 437.385, 1009.869 379.646, 1003.425 360.734 C 1001.002 353.624, 997.252 351.583, 991.929 354.478 M 3868.795 378.502 C 3859.053 382.083, 3845.714 393.990, 3833.919 409.635 C 3805.160 447.783, 3772.717 523.972, 3752.028 601.953 C 3749.773 610.451, 3747.726 617.607, 3747.478 617.855 C 3746.736 618.597, 3734.008 614.949, 3726.198 611.756 C 3722.182 610.114, 3718.699 608.968, 3718.458 609.209 C 3717.518 610.149, 3712.863 632.723, 3710.919 645.767 C 3702.361 703.202, 3704.876 753.476, 3717.808 783.500 C 3732.493 817.592, 3762.781 824.809, 3793.684 801.579 C 3829.675 774.523, 3863.502 697.458, 3889.426 583.458 C 3908.305 500.438, 3915.228 424.812, 3906.383 398.209 C 3903.091 388.307, 3897.614 381.407, 3890.782 378.553 C 3886.190 376.635, 3873.954 376.607, 3868.795 378.502 M 2004.500 380.344 C 1962.758 390.892, 1916.063 479.828, 1883.135 611.500 C 1869.053 667.812, 1859.476 731.117, 1859.535 767.500 C 1859.582 796.179, 1862.744 811.934, 1869.673 818.018 C 1872.846 820.804, 1873.875 821.162, 1877.526 820.750 C 1889.398 819.412, 1905.008 805.331, 1921.038 781.500 C 1954.571 731.649, 2001.499 622.641, 2017.470 557.500 C 2022.397 537.405, 2022.708 535, 2020.378 534.999 C 2019.345 534.999, 2015.784 533.713, 2012.464 532.143 C 2005.874 529.025, 1995 518.198, 1995 514.755 C 1995 513.707, 1997.751 506.246, 2001.114 498.175 C 2019.151 454.883, 2025.984 428.975, 2025.951 404 C 2025.925 384.449, 2018.903 376.705, 2004.500 380.344" stroke="none" fill="#ffffff" fill-rule="evenodd"/></svg>