<svg xmlns="http://www.w3.org/2000/svg" width="4096" height="4096" viewBox="0 0 4096 4096" version="1.1"><path d="M 855.500 1574.681 C 845.518 1580.010, 841 1586.513, 841 1595.552 C 841 1599.670, 840.462 1601.868, 839 1603.727 C 837.015 1606.250, 837 1607.784, 837 1803.028 C 837 1981.523, 836.853 1999.842, 835.418 2000.393 C 834.548 2000.727, 663.107 2001, 454.437 2001 C 75.038 2001, 75.038 2001, 74.475 2003.250 C 73.709 2006.311, 75.737 2041.637, 76.929 2046 C 77.455 2047.925, 78.341 2055.800, 78.899 2063.500 C 79.457 2071.200, 80.356 2078.850, 80.896 2080.500 C 81.437 2082.150, 82.831 2088.450, 83.995 2094.500 C 85.160 2100.550, 86.974 2108.875, 88.027 2113 C 89.080 2117.125, 90.695 2123.650, 91.616 2127.500 C 92.536 2131.350, 94.065 2136.313, 95.014 2138.529 C 95.963 2140.745, 97.255 2144.963, 97.885 2147.901 C 98.516 2150.840, 99.684 2154.427, 100.481 2155.872 C 102.886 2160.232, 111.981 2180.787, 116.687 2192.500 C 129.142 2223.494, 148.218 2253.847, 179.847 2293 C 199.781 2317.675, 212.321 2330.217, 236.080 2349.242 C 240.711 2352.950, 247.494 2358.575, 251.154 2361.742 C 263.498 2372.424, 314.319 2401.814, 321.859 2402.631 C 323.156 2402.772, 324.956 2403.533, 325.859 2404.322 C 328.303 2406.460, 340.577 2412.534, 348.172 2415.365 C 351.842 2416.733, 355.892 2418.511, 357.172 2419.317 C 358.452 2420.124, 361.613 2421.081, 364.196 2421.445 C 366.779 2421.809, 371.589 2423.163, 374.885 2424.455 C 378.181 2425.747, 382.818 2427.123, 385.189 2427.514 C 387.560 2427.904, 394.900 2429.575, 401.500 2431.226 C 415.186 2434.651, 414.765 2434.586, 429.500 2435.516 C 437.066 2435.994, 441.281 2436.724, 443 2437.855 C 445.257 2439.340, 453.297 2439.532, 525.586 2439.831 C 605.671 2440.163, 605.671 2440.163, 608.204 2442.331 C 611.061 2444.777, 624.207 2461.169, 631.196 2471 C 633.738 2474.575, 639.254 2481.100, 643.455 2485.500 C 655.699 2498.325, 661.514 2505.176, 664.402 2510.176 C 667.103 2514.852, 667.103 2514.852, 664.138 2520.676 C 660.731 2527.368, 656.288 2532.721, 640.224 2549.495 C 633.900 2556.098, 627.130 2563.975, 625.178 2567 C 623.226 2570.025, 621.150 2573.018, 620.564 2573.651 C 619.979 2574.284, 615.225 2580.341, 610 2587.110 C 604.775 2593.880, 596.450 2603.742, 591.500 2609.027 C 586.550 2614.312, 580.475 2621.305, 578 2624.568 C 575.525 2627.831, 570.350 2634.386, 566.500 2639.136 C 562.650 2643.885, 556.944 2651.085, 553.821 2655.136 C 550.697 2659.186, 544.847 2666.360, 540.821 2671.077 C 536.794 2675.795, 528.100 2686.342, 521.500 2694.516 C 501.367 2719.451, 498.140 2723, 495.600 2723 C 494.332 2723, 487.491 2721.021, 480.397 2718.603 C 459.908 2711.616, 447.172 2711.508, 430.500 2718.177 C 423.937 2720.802, 421.326 2722.556, 415.964 2727.939 C 403.010 2740.944, 397.565 2752.016, 396.510 2767.500 C 395.586 2781.074, 397.065 2789.398, 402.134 2799.140 C 408.434 2811.250, 416.054 2818.845, 427.704 2824.627 C 437.400 2829.439, 437.400 2829.439, 449.950 2829.823 C 465.481 2830.299, 472.157 2829.113, 482.906 2823.967 C 492.975 2819.146, 501.451 2810.972, 507.344 2800.398 C 512.059 2791.939, 513.409 2783.948, 512.736 2768.500 C 512.314 2758.817, 511.811 2756.362, 508.539 2748 C 506.494 2742.775, 504.577 2735.952, 504.280 2732.838 C 503.817 2728.005, 504.079 2726.688, 506.068 2723.838 C 509.151 2719.420, 521.560 2704.587, 531.031 2694 C 539.400 2684.645, 549.189 2672.553, 565.034 2652 C 578.961 2633.934, 587.680 2623.401, 598.147 2612 C 607.724 2601.568, 623.868 2581.753, 627.578 2575.877 C 628.875 2573.822, 633.213 2568.350, 637.218 2563.718 C 641.223 2559.085, 649.859 2549.101, 656.408 2541.532 C 663.417 2533.432, 669.588 2527.231, 671.408 2526.458 C 674.278 2525.240, 674.704 2525.338, 677.337 2527.823 C 678.897 2529.295, 683.382 2534.325, 687.302 2539 C 691.223 2543.675, 698.047 2551.326, 702.466 2556.002 C 706.885 2560.678, 714.775 2570.292, 720 2577.367 C 725.225 2584.441, 732.680 2593.665, 736.566 2597.865 C 740.453 2602.064, 746.121 2608.200, 749.162 2611.500 C 752.203 2614.800, 758.882 2622.900, 764.003 2629.500 C 769.124 2636.100, 775.616 2644.200, 778.429 2647.500 C 781.243 2650.800, 786.055 2656.650, 789.123 2660.500 C 792.192 2664.350, 798.274 2671.550, 802.641 2676.500 C 819.998 2696.178, 840.865 2721.896, 843.302 2726.614 C 844.898 2729.704, 844.875 2729.784, 840.333 2736.614 C 837.815 2740.402, 834.348 2746.425, 832.628 2750 C 829.640 2756.209, 829.485 2757.146, 829.173 2770.918 C 828.774 2788.558, 829.571 2792.024, 836.427 2802.444 C 843.783 2813.622, 849.753 2819.154, 860.394 2824.649 C 869.435 2829.319, 869.459 2829.325, 881.570 2829.791 C 897.138 2830.391, 905.252 2828.976, 915.692 2823.839 C 932.124 2815.754, 942.837 2800.693, 945.215 2782.332 C 946.731 2770.629, 946.668 2767.825, 944.695 2759.248 C 942.654 2750.374, 938.521 2741.988, 932.405 2734.306 C 925.894 2726.128, 923.683 2724.393, 913.500 2719.462 C 897.550 2711.739, 879.372 2710.840, 865.604 2717.092 C 863.029 2718.262, 859.171 2718.964, 855.249 2718.978 C 849.199 2718.999, 848.865 2718.863, 844.863 2714.750 C 838.586 2708.297, 827.052 2694.481, 820.152 2685.148 C 816.756 2680.555, 809.759 2672.230, 804.602 2666.648 C 794.831 2656.072, 778.986 2637.317, 776.174 2633 C 771.837 2626.343, 753.031 2603.611, 745.194 2595.555 C 736.408 2586.522, 726.920 2575.153, 721.708 2567.414 C 718.262 2562.298, 712.252 2555.223, 700.812 2542.814 C 685.324 2526.012, 683.971 2523.993, 682.870 2516.032 C 681.855 2508.695, 682.991 2506.569, 694.467 2494.345 C 706.242 2481.801, 712.152 2474.686, 719.252 2464.500 C 722.319 2460.100, 728.252 2452.819, 732.435 2448.321 C 740.042 2440.142, 740.042 2440.142, 817.771 2439.648 C 860.522 2439.376, 896.354 2439.097, 897.398 2439.026 C 898.442 2438.956, 900.692 2438.144, 902.398 2437.223 C 904.286 2436.203, 909.218 2435.276, 915 2434.855 C 923.942 2434.204, 940.355 2431.134, 942.723 2429.671 C 943.314 2429.306, 945.756 2428.776, 948.149 2428.494 C 954.206 2427.779, 957.638 2427.081, 964 2425.269 C 982.595 2419.974, 996.983 2414.842, 1000.898 2412.109 C 1006.670 2408.078, 1019.311 2401.964, 1020.858 2402.455 C 1021.765 2402.743, 1024.080 2401.973, 1026.003 2400.744 C 1031.145 2397.459, 1038.754 2393.353, 1045 2390.493 C 1051.472 2387.530, 1049.433 2388.720, 1069.659 2376.101 C 1078.546 2370.556, 1088.221 2363.863, 1091.159 2361.228 C 1094.097 2358.593, 1098.975 2354.433, 1102 2351.982 C 1105.025 2349.532, 1107.725 2347.277, 1108 2346.972 C 1108.275 2346.666, 1111.875 2343.560, 1116 2340.070 C 1130.302 2327.970, 1143.653 2315.146, 1149.554 2307.841 C 1152.816 2303.804, 1158.863 2296.395, 1162.992 2291.378 C 1193.493 2254.317, 1205.928 2234.136, 1224.532 2191.500 C 1227.652 2184.350, 1232.454 2173.550, 1235.202 2167.500 C 1240.184 2156.535, 1247.240 2136.645, 1248.506 2130 C 1248.873 2128.075, 1250.651 2122, 1252.458 2116.500 C 1254.264 2111, 1256.216 2103.125, 1256.794 2099 C 1257.372 2094.875, 1258.534 2088.350, 1259.375 2084.500 C 1261.049 2076.843, 1264 2052.997, 1264 2047.127 C 1264 2045.102, 1264.775 2042.338, 1265.723 2040.986 C 1267.279 2038.763, 1267.447 2034.842, 1267.463 2000.357 C 1267.478 1966.718, 1267.289 1961.969, 1265.873 1960.344 C 1264.731 1959.033, 1263.916 1954.599, 1263.055 1945 C 1259.817 1908.918, 1250.424 1872.450, 1236.261 1840.970 C 1232.419 1832.429, 1228.929 1824.329, 1228.508 1822.970 C 1227.659 1820.236, 1214.562 1793.726, 1209.765 1785.032 C 1201.906 1770.787, 1197.648 1763.964, 1192.585 1757.500 C 1189.569 1753.650, 1183.151 1745.325, 1178.323 1739 C 1158.346 1712.831, 1145.711 1698.690, 1132 1687.156 C 1128.975 1684.611, 1121.209 1677.478, 1114.743 1671.305 C 1102.924 1660.022, 1089.138 1649.465, 1076.916 1642.339 C 1070.362 1638.517, 1058.977 1631.763, 1041.119 1621.101 C 1023.760 1610.737, 1018.525 1607.991, 1013 1606.349 C 1009.975 1605.451, 1006.555 1604.097, 1005.399 1603.340 C 1000.315 1600.013, 964.101 1587, 959.926 1587 C 957.911 1587, 947.168 1583.720, 943.500 1581.985 C 942.400 1581.465, 937.718 1580.584, 933.095 1580.028 C 928.472 1579.472, 923.297 1578.571, 921.595 1578.026 C 907.160 1573.405, 862.158 1571.127, 855.500 1574.681 M 1532.772 1683.738 C 1523.687 1684.310, 1524 1682.977, 1524 1721.031 C 1524 1745.542, 1524.310 1754.032, 1525.250 1755.291 C 1527.285 1758.014, 1538.391 1758.959, 1568.628 1758.980 C 1590.930 1758.996, 1596.986 1759.278, 1597.870 1760.343 C 1598.678 1761.317, 1599.055 1812.900, 1599.242 1948.260 C 1599.384 2050.875, 1599.874 2135.208, 1600.332 2135.667 C 1600.790 2136.125, 1616.765 2136.620, 1635.832 2136.767 C 1670.500 2137.035, 1670.500 2137.035, 1673.500 2134.612 C 1676.826 2131.927, 1676.718 2140.711, 1676.930 1854.404 C 1677 1759.307, 1677 1759.307, 1710.373 1758.745 C 1745.313 1758.157, 1748.749 1757.702, 1750.379 1753.455 C 1751.448 1750.669, 1751.065 1692.774, 1749.951 1688.762 C 1749.380 1686.706, 1748.062 1684.568, 1747.022 1684.012 C 1745.259 1683.068, 1547.445 1682.816, 1532.772 1683.738 M 1803 1683.657 C 1801.075 1683.907, 1798.938 1684.848, 1798.250 1685.747 C 1797.259 1687.044, 1797 1733.671, 1797 1911.132 C 1797 2089.034, 1797.256 2135.048, 1798.250 2135.691 C 1799.688 2136.621, 1864.279 2137.398, 1867.751 2136.526 C 1869.016 2136.209, 1870.939 2135.061, 1872.025 2133.975 C 1873.963 2132.037, 1874 2130.272, 1874 2040 C 1874 1989.400, 1874.338 1947.992, 1874.750 1947.982 C 1910.464 1947.130, 1932.040 1946.963, 1937.750 1947.495 C 1945 1948.171, 1945 1948.171, 1945 2039.038 C 1945 2104.825, 1945.314 2130.595, 1946.138 2132.403 C 1946.764 2133.777, 1948.631 2135.373, 1950.287 2135.950 C 1952.153 2136.601, 1965.789 2137, 1986.149 2137 C 2017.667 2137, 2019.081 2136.919, 2021 2135 C 2022.988 2133.012, 2023 2131.696, 2022.956 1913.250 C 2022.932 1792.388, 2022.540 1691.570, 2022.083 1689.210 C 2021.627 1686.851, 2020.935 1684.601, 2020.545 1684.210 C 2019.529 1683.191, 1968.115 1682.786, 1958.037 1683.718 C 1949.877 1684.472, 1949.493 1684.622, 1947.287 1687.898 C 1945 1691.296, 1945 1691.296, 1945 1782.148 C 1945 1873, 1945 1873, 1909.500 1873 C 1874 1873, 1874 1873, 1874 1781.565 C 1874 1728.086, 1873.617 1689.122, 1873.077 1687.701 C 1872.569 1686.366, 1871.331 1684.921, 1870.327 1684.490 C 1868.353 1683.645, 1808.768 1682.907, 1803 1683.657 M 2085 1683.858 C 2083.353 1684.334, 2082.093 1685.762, 2081.306 1688.041 C 2079.692 1692.720, 2079.453 2128.134, 2081.063 2132.751 C 2081.673 2134.501, 2083.058 2136.050, 2084.313 2136.386 C 2085.516 2136.709, 2134.887 2136.979, 2194.027 2136.986 C 2289.744 2136.999, 2301.799 2136.829, 2303.777 2135.443 C 2306 2133.887, 2306 2133.887, 2306 2099.002 C 2306 2072.193, 2305.711 2063.931, 2304.750 2063.309 C 2304.063 2062.864, 2270.575 2062.275, 2230.332 2062 C 2190.090 2061.725, 2156.790 2061.125, 2156.332 2060.667 C 2155.285 2059.619, 2155.223 1949.447, 2156.269 1948.399 C 2156.692 1947.975, 2182.028 1947.428, 2212.571 1947.183 C 2263.934 1946.771, 2268.268 1946.604, 2270.301 1944.957 C 2272.487 1943.188, 2272.500 1942.981, 2272.500 1909.626 C 2272.500 1878.757, 2272.357 1875.931, 2270.715 1874.287 C 2269.056 1872.626, 2264.990 1872.465, 2213.048 1872 C 2182.312 1871.725, 2156.790 1871.125, 2156.332 1870.667 C 2155.468 1869.802, 2154.936 1782.686, 2155.708 1768.340 C 2156.147 1760.179, 2156.147 1760.179, 2227.323 1759.778 C 2291.659 1759.414, 2298.860 1759.212, 2302.250 1757.674 C 2306 1755.973, 2306 1755.973, 2306 1721.109 C 2306 1689.903, 2305.827 1686.101, 2304.347 1684.872 C 2302.971 1683.730, 2284.625 1683.469, 2195.097 1683.317 C 2135.919 1683.216, 2086.375 1683.460, 2085 1683.858 M 1540.323 2248.656 C 1535.228 2249.742, 1535.521 2237.302, 1535.195 2465.904 C 1535.028 2583.382, 1535.176 2683.582, 1535.525 2688.570 C 1535.874 2693.559, 1536.530 2698.239, 1536.982 2698.971 C 1538.457 2701.358, 1555.934 2702.324, 1583.212 2701.527 C 1600.782 2701.014, 1609.452 2700.390, 1610.591 2699.557 C 1612.139 2698.425, 1612.268 2682.283, 1612.380 2475.205 C 1612.494 2262.293, 1612.418 2251.992, 1610.715 2250.287 C 1609.080 2248.649, 1606.155 2248.487, 1575.715 2248.346 C 1557.447 2248.261, 1541.520 2248.401, 1540.323 2248.656 M 1673.302 2249.012 C 1672.094 2249.499, 1670.402 2251.255, 1669.543 2252.916 C 1668.140 2255.630, 1668.008 2278.106, 1668.241 2475.217 C 1668.492 2687.650, 1668.558 2694.586, 1670.373 2697.262 C 1671.403 2698.781, 1673.428 2700.356, 1674.873 2700.762 C 1676.318 2701.168, 1692.056 2701.444, 1709.846 2701.377 C 1741.547 2701.256, 1742.234 2701.210, 1744.346 2699.099 C 1746.500 2696.945, 1746.500 2696.945, 1746.777 2576.898 C 1746.994 2482.852, 1747.319 2456.934, 1748.277 2457.230 C 1750.439 2457.900, 1752.877 2463.692, 1763.125 2492.500 C 1765.864 2500.200, 1771.191 2515.050, 1774.961 2525.500 C 1783.576 2549.378, 1791.027 2570.324, 1799.327 2594 C 1819.842 2652.518, 1835.895 2695.335, 1838.584 2698.707 C 1840.745 2701.418, 1840.745 2701.418, 1859.876 2701.829 C 1870.398 2702.056, 1885.166 2701.911, 1892.693 2701.508 C 1914.694 2700.329, 1912 2731.763, 1912 2476.202 C 1912 2355.778, 1911.715 2255.824, 1911.366 2254.082 C 1910.165 2248.074, 1908.909 2247.891, 1871.059 2248.212 C 1852.417 2248.371, 1836.832 2248.833, 1836.425 2249.240 C 1834.429 2251.240, 1834.115 2267.948, 1834.060 2375.083 C 1834.027 2438.654, 1833.749 2490.918, 1833.442 2491.225 C 1830.055 2494.612, 1826.489 2485.633, 1794.041 2392 C 1789.753 2379.625, 1782.172 2358.250, 1777.195 2344.500 C 1772.219 2330.750, 1763.433 2306.450, 1757.672 2290.500 C 1744.239 2253.313, 1743.219 2250.751, 1741.254 2249.250 C 1739.308 2247.763, 1676.946 2247.545, 1673.302 2249.012 M 2028.500 2249.574 C 2010.852 2252.801, 2000.929 2257.797, 1990 2268.956 C 1981.264 2277.876, 1973.605 2290.611, 1971.957 2298.954 C 1971.355 2302.004, 1970.110 2307.200, 1969.191 2310.500 C 1967.661 2315.993, 1967.522 2329.982, 1967.544 2476 C 1967.562 2599.027, 1967.846 2636.144, 1968.784 2638.316 C 1969.453 2639.866, 1970.638 2644.190, 1971.418 2647.927 C 1972.197 2651.663, 1974.396 2657.821, 1976.304 2661.611 C 1987.230 2683.308, 2003.941 2695.280, 2030 2700.081 C 2037.967 2701.549, 2096.454 2702.291, 2115.670 2701.168 C 2144.756 2699.468, 2160.817 2694.006, 2173.376 2681.542 C 2181.114 2673.863, 2184.376 2669.066, 2188.135 2659.844 C 2194.980 2643.046, 2195.390 2639.604, 2195.776 2595.631 C 2196.124 2555.912, 2196.118 2555.754, 2193.964 2553.462 C 2189.878 2549.112, 2187.981 2548.899, 2156.207 2549.207 C 2116.179 2549.596, 2119.668 2546.205, 2119 2585.367 C 2118.471 2616.419, 2118.591 2615.654, 2113.502 2620.345 C 2108.304 2625.137, 2106.487 2625.488, 2085.500 2625.752 C 2066.957 2625.985, 2065.032 2625.840, 2059.075 2623.752 C 2055.032 2622.335, 2051.936 2620.527, 2050.723 2618.874 C 2046.025 2612.476, 2046.032 2612.682, 2046.016 2475.312 C 2045.998 2333.618, 2045.909 2335.896, 2051.740 2329.768 C 2056.809 2324.441, 2060.436 2323.824, 2084.582 2324.178 C 2109.248 2324.540, 2111.502 2325.078, 2116 2331.677 C 2118.483 2335.320, 2118.504 2335.538, 2119.049 2363.422 C 2119.562 2389.659, 2119.739 2391.771, 2121.756 2395.627 C 2122.943 2397.896, 2124.646 2400.034, 2125.539 2400.377 C 2126.433 2400.719, 2140.985 2401, 2157.879 2401 C 2199.369 2401, 2196.001 2404.802, 2195.996 2357.958 C 2195.992 2320.343, 2195.249 2311.500, 2190.912 2297.442 C 2183.486 2273.371, 2166.996 2257.908, 2141.143 2250.774 C 2133.929 2248.783, 2130.777 2248.649, 2085 2248.388 C 2045.830 2248.165, 2034.961 2248.393, 2028.500 2249.574 M 2258.270 2248.703 C 2257.043 2248.940, 2255.131 2250.289, 2254.020 2251.702 C 2252.009 2254.258, 2252 2255.152, 2252 2446.321 C 2252 2638.372, 2252 2638.372, 2254.105 2645.936 C 2256.915 2656.032, 2261.945 2666.767, 2267.541 2674.609 C 2277.083 2687.981, 2297.276 2698.721, 2316 2700.383 C 2330.704 2701.688, 2379.611 2702.126, 2398 2701.117 C 2428.945 2699.419, 2443.837 2694.256, 2457.500 2680.487 C 2468.060 2669.845, 2474.761 2655.133, 2477.307 2637 C 2479.099 2624.231, 2479.020 2259.965, 2477.224 2254.905 C 2474.997 2248.634, 2474.213 2248.500, 2439.756 2248.500 C 2401.350 2248.500, 2404.599 2246.601, 2403.601 2269.638 C 2403.222 2278.362, 2402.990 2358.400, 2403.084 2447.500 C 2403.242 2597.018, 2403.126 2609.807, 2401.580 2613.486 C 2399.206 2619.135, 2396.483 2621.663, 2390.085 2624.158 C 2385.152 2626.082, 2382.515 2626.342, 2367.500 2626.387 C 2342.816 2626.459, 2335.865 2624.202, 2331.428 2614.674 C 2329.020 2609.500, 2329.020 2609.500, 2329.010 2432.184 C 2329.004 2319.458, 2328.646 2254.208, 2328.029 2253.055 C 2327.495 2252.057, 2325.236 2250.511, 2323.009 2249.620 C 2319.569 2248.244, 2314.564 2248.020, 2289.730 2248.136 C 2273.653 2248.211, 2259.496 2248.466, 2258.270 2248.703 M 2545.180 2248.710 C 2537.906 2249.088, 2537.851 2249.112, 2536.417 2252.544 C 2535.171 2255.525, 2535.010 2286.261, 2535.237 2476.964 C 2535.488 2687.561, 2535.584 2698.013, 2537.286 2699.714 C 2538.974 2701.402, 2543.225 2701.485, 2614.786 2701.225 C 2656.429 2701.073, 2692.975 2700.694, 2696 2700.382 C 2704.949 2699.458, 2719.991 2695.058, 2727.500 2691.168 C 2737.169 2686.159, 2747.352 2675.753, 2752.698 2665.419 C 2758.804 2653.615, 2760.820 2645.049, 2761.980 2625.975 C 2763.157 2606.629, 2763.241 2534.239, 2762.108 2515.500 C 2761.379 2503.434, 2761.095 2502.105, 2758.148 2497 C 2756.401 2493.975, 2754.191 2490.583, 2753.236 2489.462 C 2750.615 2486.384, 2740.989 2479, 2739.599 2479 C 2737.611 2479, 2734.023 2475.103, 2734.608 2473.579 C 2734.905 2472.805, 2737.514 2471.212, 2740.405 2470.039 C 2746.399 2467.606, 2754.275 2460.077, 2758.443 2452.796 C 2760.911 2448.486, 2761.224 2446.684, 2762.178 2431.296 C 2763.424 2411.216, 2762.546 2322.427, 2760.980 2310.164 C 2758.921 2294.036, 2751.707 2278.908, 2741.310 2268.916 C 2731.859 2259.834, 2722.584 2254.745, 2708.329 2250.821 C 2700.667 2248.712, 2698.918 2248.662, 2626.500 2248.498 C 2585.800 2248.405, 2549.206 2248.501, 2545.180 2248.710 M 2910.440 2250.452 C 2908.020 2254.145, 2906.500 2259.937, 2900.473 2288.429 C 2895.144 2313.624, 2890.178 2336.792, 2880.414 2382 C 2877.860 2393.825, 2875.221 2406.425, 2874.550 2410 C 2873.879 2413.575, 2870.997 2427.075, 2868.145 2440 C 2859.201 2480.528, 2840.046 2567.985, 2837.481 2580 C 2836.131 2586.325, 2832.967 2600.950, 2830.451 2612.500 C 2813.018 2692.534, 2812.113 2697.438, 2814.354 2699.691 C 2814.796 2700.136, 2820.185 2700.768, 2826.329 2701.095 C 2839.598 2701.802, 2884.919 2701.352, 2887.162 2700.491 C 2889.248 2699.691, 2890.387 2696.979, 2892.407 2688 C 2893.722 2682.155, 2902.165 2636.570, 2905.703 2616.212 C 2906.017 2614.403, 2907.031 2612.518, 2907.957 2612.023 C 2908.902 2611.517, 2930.810 2611.205, 2957.965 2611.311 C 3013.723 2611.529, 3006.667 2608.105, 3011.926 2637.500 C 3016.348 2662.218, 3020.164 2681.161, 3023.165 2693.303 C 3024.595 2699.084, 3026.723 2700.592, 3034.596 2701.404 C 3043.750 2702.347, 3095.982 2701.007, 3098.375 2699.767 C 3100.020 2698.915, 3100.189 2697.920, 3099.751 2691.648 C 3099.477 2687.717, 3097.209 2675.275, 3094.712 2664 C 3092.215 2652.725, 3087.616 2631.575, 3084.491 2617 C 3081.367 2602.425, 3076.586 2580.600, 3073.866 2568.500 C 3071.147 2556.400, 3067.581 2540.200, 3065.941 2532.500 C 3064.301 2524.800, 3061.406 2511.525, 3059.507 2503 C 3055.635 2485.615, 3047.851 2449.344, 3039.010 2407.500 C 3035.757 2392.100, 3032.149 2375.225, 3030.992 2370 C 3029.836 2364.775, 3028.037 2356.225, 3026.995 2351 C 3025.954 2345.775, 3023.267 2333.175, 3021.026 2323 C 3018.784 2312.825, 3014.919 2294.825, 3012.437 2283 C 3007.087 2257.511, 3005.505 2251.648, 3003.418 2249.561 C 3002.050 2248.193, 2996.318 2248, 2956.952 2248 C 2912.046 2248, 2912.046 2248, 2910.440 2250.452 M 3144.323 2248.696 C 3139.581 2249.619, 3139.500 2250.235, 3139.500 2285.242 C 3139.500 2318.174, 3139.500 2318.174, 3142.306 2320.587 C 3145.112 2323, 3145.112 2323, 3177.974 2323 C 3196.048 2323, 3211.559 2323.277, 3212.441 2323.616 C 3213.907 2324.178, 3214.039 2339.810, 3213.968 2503.366 C 3213.926 2601.890, 3214.205 2686.211, 3214.589 2690.747 C 3214.973 2695.282, 3215.819 2699.435, 3216.469 2699.974 C 3218.360 2701.543, 3243.746 2702.336, 3266.222 2701.528 C 3286.054 2700.814, 3287.052 2700.681, 3289.472 2698.439 C 3292 2696.095, 3292 2696.095, 3292.131 2532.798 C 3292.203 2442.984, 3292.541 2359.150, 3292.881 2346.500 C 3293.500 2323.500, 3293.500 2323.500, 3327.500 2323 C 3346.200 2322.725, 3362.108 2322.108, 3362.852 2321.628 C 3366.485 2319.285, 3367 2314.756, 3367 2285.181 C 3367 2255.407, 3366.494 2250.870, 3362.961 2248.979 C 3361.185 2248.029, 3149.159 2247.755, 3144.323 2248.696 M 3473.660 2249.004 C 3465.430 2250.459, 3454.817 2254.021, 3447.500 2257.782 C 3438.856 2262.226, 3426.866 2274.019, 3422.326 2282.541 C 3418.718 2289.315, 3414.430 2301.510, 3412.932 2309.258 C 3411.496 2316.684, 3411.535 2627.903, 3412.973 2637.909 C 3414.458 2648.241, 3419.209 2661.797, 3424.009 2669.397 C 3430.021 2678.915, 3439.974 2687.810, 3450.058 2692.676 C 3466.132 2700.432, 3466.784 2700.500, 3525 2700.500 C 3576.500 2700.500, 3576.500 2700.500, 3586.465 2697.692 C 3600.648 2693.695, 3609.035 2689.001, 3618.044 2680.020 C 3627.968 2670.128, 3633.882 2658.174, 3637.101 2641.500 C 3638.683 2633.304, 3639.560 2354.803, 3638.093 2326.500 C 3636.948 2304.406, 3635.529 2297.577, 3629.574 2285.500 C 3621.340 2268.800, 3605.356 2256.310, 3585.175 2250.806 C 3577.945 2248.835, 3574.627 2248.697, 3528 2248.431 C 3500.775 2248.275, 3476.322 2248.533, 3473.660 2249.004 M 3700.728 2248.710 C 3699.159 2248.952, 3697.207 2250.281, 3696.228 2251.775 C 3694.604 2254.254, 3694.500 2267.634, 3694.500 2474.456 C 3694.500 2680.996, 3694.606 2694.694, 3696.227 2697.655 C 3697.921 2700.751, 3698.125 2700.822, 3707.227 2701.485 C 3712.327 2701.856, 3728.350 2701.784, 3742.834 2701.325 C 3767.191 2700.554, 3769.274 2700.346, 3770.584 2698.555 C 3771.768 2696.935, 3772.027 2685.703, 3772.167 2630.059 C 3772.331 2564.379, 3772.497 2551.153, 3773.161 2550.523 C 3773.348 2550.347, 3781.702 2549.875, 3791.727 2549.475 C 3813.125 2548.620, 3809.960 2545.781, 3816.561 2571.752 C 3818.973 2581.241, 3822.730 2595.641, 3824.910 2603.752 C 3827.089 2611.864, 3830.509 2624.800, 3832.509 2632.500 C 3834.509 2640.200, 3838.324 2654.869, 3840.986 2665.099 C 3846.563 2686.533, 3850.251 2697.682, 3852.503 2699.925 C 3853.889 2701.305, 3858.235 2701.473, 3887.555 2701.278 C 3908.733 2701.138, 3921.751 2700.668, 3923.001 2699.999 C 3925.603 2698.607, 3926.267 2695.509, 3925.145 2690 C 3924.032 2684.540, 3916.455 2655.020, 3903.455 2605.500 C 3886.479 2540.835, 3887.177 2543.993, 3889.502 2542.374 C 3900.600 2534.644, 3908.222 2528.220, 3911.818 2523.566 C 3919.549 2513.558, 3924.873 2499.288, 3927.150 2482.467 C 3929.097 2468.093, 3929.088 2332.250, 3927.139 2316.500 C 3925.644 2304.415, 3922.294 2292.535, 3917.948 2283.909 C 3910.277 2268.682, 3893.857 2256.226, 3874.294 2250.795 C 3866.622 2248.665, 3865.220 2248.628, 3785 2248.457 C 3740.175 2248.362, 3702.253 2248.476, 3700.728 2248.710 M 3501.871 2323.538 C 3496.178 2325.324, 3490.441 2331.329, 3489.307 2336.690 C 3488.863 2338.786, 3488.500 2401.700, 3488.500 2476.500 C 3488.500 2607.871, 3488.564 2612.630, 3490.391 2616.306 C 3492.717 2620.989, 3497.155 2624.458, 3502.711 2625.936 C 3508.763 2627.546, 3544.611 2627.604, 3549.573 2626.012 C 3555.382 2624.149, 3559.996 2620.264, 3562.129 2615.441 C 3563.959 2611.304, 3564.012 2606.663, 3563.760 2473.168 C 3563.500 2335.172, 3563.500 2335.172, 3560.500 2330.925 C 3555.020 2323.168, 3552.620 2322.530, 3528 2322.292 C 3511.522 2322.133, 3505.419 2322.424, 3501.871 2323.538 M 2614 2379.883 C 2614 2434.303, 2614.051 2435.780, 2615.935 2436.273 C 2617 2436.551, 2629.487 2436.716, 2643.685 2436.639 C 2672.220 2436.485, 2674.166 2436.125, 2680.712 2429.790 C 2685.780 2424.885, 2686.167 2420.907, 2685.814 2377.284 C 2685.468 2334.521, 2685.401 2334.040, 2679.105 2328.742 C 2677.363 2327.276, 2674.264 2325.612, 2672.219 2325.044 C 2670.082 2324.451, 2656.909 2324.009, 2641.250 2324.006 C 2614 2324, 2614 2324, 2614 2379.883 M 3773 2398.415 C 3773 2472.829, 3773 2472.829, 3780.588 2473.540 C 3784.762 2473.932, 3798.374 2474.050, 3810.838 2473.804 C 3837.316 2473.281, 3840.712 2472.415, 3845.677 2464.912 C 3848.500 2460.647, 3848.500 2460.647, 3849.317 2434.574 C 3849.766 2420.233, 3849.900 2393.089, 3849.615 2374.253 C 3849.146 2343.313, 3848.911 2339.596, 3847.178 2335.753 C 3844.665 2330.181, 3840.156 2326.056, 3835.362 2324.944 C 3833.238 2324.451, 3818.338 2324.037, 3802.250 2324.024 C 3773 2324, 3773 2324, 3773 2398.415 M 2955.543 2364.167 C 2954.365 2367.595, 2952.062 2378.219, 2951.027 2385 C 2950.397 2389.125, 2949.454 2394.750, 2948.930 2397.500 C 2945.806 2413.919, 2939.822 2446.232, 2938.004 2456.500 C 2935.616 2469.988, 2931.116 2494.105, 2924.523 2528.757 C 2923.135 2536.048, 2922 2542.460, 2922 2543.007 C 2922 2543.645, 2934.362 2544, 2956.632 2544 C 2991.263 2544, 2991.263 2544, 2990.710 2540.250 C 2989.873 2534.588, 2984.582 2504.944, 2980.491 2483 C 2973.140 2443.568, 2970.127 2427.150, 2967.459 2412 C 2959.788 2368.433, 2957.388 2358.799, 2955.543 2364.167 M 622.006 2442.750 C 622.017 2445.783, 624.527 2449.518, 633.709 2460.160 C 638.615 2465.847, 648.341 2477.339, 655.322 2485.698 C 669.049 2502.135, 671.096 2504.049, 674.105 2503.262 C 675.192 2502.978, 680.225 2497.965, 685.290 2492.123 C 690.356 2486.280, 695.218 2480.825, 696.097 2480 C 699.258 2477.030, 709.774 2464.331, 715.921 2456.059 C 721.729 2448.244, 724 2444.275, 724 2441.935 C 724 2441.367, 703.966 2441, 673 2441 C 625.093 2441, 622 2441.106, 622.006 2442.750 M 2615.250 2513.620 C 2614.272 2514.048, 2614 2526.208, 2614 2569.583 C 2614 2625, 2614 2625, 2633.250 2625.097 C 2672.322 2625.294, 2674.895 2624.944, 2681.182 2618.579 C 2685.496 2614.211, 2686.001 2609.025, 2685.988 2569.201 C 2685.973 2523.261, 2685.710 2521.854, 2676.080 2516.192 C 2671.500 2513.500, 2671.500 2513.500, 2644 2513.287 C 2628.875 2513.170, 2615.938 2513.320, 2615.250 2513.620 M 442.228 2746.171 C 439.879 2747.310, 436.111 2750.325, 433.854 2752.871 C 424.878 2763, 423.233 2773.583, 428.837 2785.161 C 430.610 2788.824, 433.509 2793.251, 435.280 2794.997 C 441.029 2800.666, 443.514 2801.503, 454.500 2801.470 C 468.423 2801.428, 473.301 2798.672, 480.899 2786.554 C 483.760 2781.991, 484 2780.925, 484 2772.764 C 484 2762.180, 482.370 2758.256, 475.439 2752.155 C 466.427 2744.222, 451.714 2741.571, 442.228 2746.171 M 875.581 2746.014 C 869.149 2748.526, 864.863 2752.805, 861.078 2760.493 C 858.856 2765.006, 858 2768.169, 858 2771.862 C 858 2781.809, 864.692 2793.971, 872.782 2798.727 C 877.044 2801.232, 878.418 2801.500, 887 2801.500 C 898.363 2801.500, 904.040 2799.257, 909.386 2792.656 C 915.423 2785.200, 916.371 2782.425, 916.438 2772 C 916.495 2763.332, 916.265 2762.139, 913.820 2758.380 C 905.990 2746.346, 888.892 2740.817, 875.581 2746.014" stroke="none" fill="#ffffff" fill-rule="evenodd"/></svg>